<svg xmlns="http://www.w3.org/2000/svg" viewBox="0 0 302 220.374"><defs><style>.cls-1{fill:#6c5ce7;}</style></defs><g id="Слой_2" data-name="Слой 2"><g id="Слой_2-2" data-name="Слой 2"><path d="M31,220.3148,0,220,108,43.537h14.7593A21.833,21.833,0,0,1,141.3858,53.98l47.65,77.9241L189,79l27,32v65H189L123,69,85,131.87l68,.13,13,22H72Z"/><path class="cls-1" d="M267.8562,166.7891,135,0h32L275.1932,131.9259,275,44.3148h27V176H286.9691A24.4354,24.4354,0,0,1,267.8562,166.7891Z"/><path d="M79.0068,219.6709h-4.38a4.0756,4.0756,0,0,1-3.4707-1.9392L61.8047,202.54h-.11l.143,16.6049a.5215.5215,0,0,1-.5215.526H56.2217a.5215.5215,0,0,1-.5215-.5215V193.9961a.5215.5215,0,0,1,.5215-.5215h6.4017a.5215.5215,0,0,1,.4443.2484l10.3552,16.8463h.1113L73.39,194.0007a.5216.5216,0,0,1,.5215-.5261h5.095a.5215.5215,0,0,1,.5215.5215v25.1533A.5215.5215,0,0,1,79.0068,219.6709Z"/><path d="M94.9941,219.6709H88.63V193.4746h6.3642Z"/><path d="M128.3672,219.6709h-6.3339a4.01,4.01,0,0,1-3.1208-1.4921l-8.5268-10.5694h-.0742v12.0615h-6.2158V193.4746h6.2158v10.6563h.1114l9.36-10.6563h7.918L116.417,205.5371Z"/><path d="M159.9287,206.4619a13.2914,13.2914,0,0,1-4.0332,10.0459,15.4686,15.4686,0,0,1-20.4609,0,13.2907,13.2907,0,0,1-4.0323-10.0459,12.95,12.95,0,0,1,4.0137-9.9531,15.9219,15.9219,0,0,1,20.4981,0A12.9506,12.9506,0,0,1,159.9287,206.4619Zm-6.77,0a8.0683,8.0683,0,0,0-2.1094-5.7353,7.5708,7.5708,0,0,0-10.7851,0,8.1069,8.1069,0,0,0-2.0908,5.7353,8.34,8.34,0,0,0,2.0908,5.8457,7.4852,7.4852,0,0,0,10.7851,0A8.2993,8.2993,0,0,0,153.1582,206.4619Z"/><path d="M184.3115,219.6709H167.81V193.4746h6.3642v20.6836h10.1377Z"/><path d="M215.7617,219.6709h-7.03l-2.0351-5.1426H196.5586l-1.9238,5.1426h-6.8819l10.9883-26.1963h3.4251a4.071,4.071,0,0,1,3.76,2.51ZM204.957,209.459l-3.2558-8.9912-3.33,8.9912Z"/><path d="M239.9209,219.6709H221.6436V193.4746h17.6123V198.84H227.748v4.9209h8.878V208.83h-8.878v5.4385h12.1729Z"/><path d="M270.8906,193.4746,260.79,219.6709h-3.5455a4.0271,4.0271,0,0,1-3.7663-2.6015l-8.9313-23.5948H251.65l6.0684,18.5742h.1474l6.0313-18.5742Z"/><path d="M300.416,219.6709h-7.03l-2.0351-5.1426H281.2129l-1.9238,5.1426h-6.8819l10.9883-26.1963h3.41a4.0942,4.0942,0,0,1,3.7811,2.524ZM289.6113,209.459l-3.2558-8.9912-3.33,8.9912Z"/></g></g></svg>