<svg width="1429" height="290" viewBox="0 0 1429 290" fill="none" xmlns="http://www.w3.org/2000/svg">
<g clip-path="url(#clip0)">
<path d="M162.704 35.661C166.397 35.661 169.391 32.6674 169.391 28.9746C169.391 25.2817 166.397 22.2881 162.704 22.2881C159.011 22.2881 156.018 25.2817 156.018 28.9746C156.018 32.6674 159.011 35.661 162.704 35.661Z" fill="#FDCB6E"/>
<path d="M184.992 13.3729C188.685 13.3729 191.679 10.3793 191.679 6.68647C191.679 2.99363 188.685 0 184.992 0C181.299 0 178.306 2.99363 178.306 6.68647C178.306 10.3793 181.299 13.3729 184.992 13.3729Z" fill="#FDCB6E"/>
<path d="M207.281 35.661C210.974 35.661 213.967 32.6674 213.967 28.9746C213.967 25.2817 210.974 22.2881 207.281 22.2881C203.588 22.2881 200.594 25.2817 200.594 28.9746C200.594 32.6674 203.588 35.661 207.281 35.661Z" fill="#FDCB6E"/>
<path d="M229.569 13.3729C233.262 13.3729 236.255 10.3793 236.255 6.68647C236.255 2.99363 233.262 0 229.569 0C225.876 0 222.882 2.99363 222.882 6.68647C222.882 10.3793 225.876 13.3729 229.569 13.3729Z" fill="#FDCB6E"/>
<path d="M251.857 35.661C255.55 35.661 258.543 32.6674 258.543 28.9746C258.543 25.2817 255.55 22.2881 251.857 22.2881C248.164 22.2881 245.17 25.2817 245.17 28.9746C245.17 32.6674 248.164 35.661 251.857 35.661Z" fill="#FDCB6E"/>
<path d="M274.145 13.3729C277.838 13.3729 280.832 10.3793 280.832 6.68647C280.832 2.99363 277.838 0 274.145 0C270.453 0 267.459 2.99363 267.459 6.68647C267.459 10.3793 270.453 13.3729 274.145 13.3729Z" fill="#FDCB6E"/>
<path d="M296.434 35.661C300.126 35.661 303.12 32.6674 303.12 28.9746C303.12 25.2817 300.126 22.2881 296.434 22.2881C292.741 22.2881 289.747 25.2817 289.747 28.9746C289.747 32.6674 292.741 35.661 296.434 35.661Z" fill="#FDCB6E"/>
<path d="M318.722 13.3729C322.414 13.3729 325.408 10.3793 325.408 6.68647C325.408 2.99363 322.414 0 318.722 0C315.029 0 312.035 2.99363 312.035 6.68647C312.035 10.3793 315.029 13.3729 318.722 13.3729Z" fill="#FDCB6E"/>
<path d="M341.01 35.661C344.703 35.661 347.696 32.6674 347.696 28.9746C347.696 25.2817 344.703 22.2881 341.01 22.2881C337.317 22.2881 334.323 25.2817 334.323 28.9746C334.323 32.6674 337.317 35.661 341.01 35.661Z" fill="#FDCB6E"/>
<path d="M118.128 80.2377C121.821 80.2377 124.814 77.2441 124.814 73.5512C124.814 69.8584 121.821 66.8647 118.128 66.8647C114.435 66.8647 111.441 69.8584 111.441 73.5512C111.441 77.2441 114.435 80.2377 118.128 80.2377Z" fill="#FDCB6E"/>
<path d="M140.416 57.9496C144.109 57.9496 147.102 54.956 147.102 51.2631C147.102 47.5703 144.109 44.5767 140.416 44.5767C136.723 44.5767 133.729 47.5703 133.729 51.2631C133.729 54.956 136.723 57.9496 140.416 57.9496Z" fill="#FDCB6E"/>
<path d="M162.704 80.2377C166.397 80.2377 169.391 77.2441 169.391 73.5512C169.391 69.8584 166.397 66.8647 162.704 66.8647C159.011 66.8647 156.018 69.8584 156.018 73.5512C156.018 77.2441 159.011 80.2377 162.704 80.2377Z" fill="#FDCB6E"/>
<path d="M184.992 57.9496C188.685 57.9496 191.679 54.956 191.679 51.2631C191.679 47.5703 188.685 44.5767 184.992 44.5767C181.299 44.5767 178.306 47.5703 178.306 51.2631C178.306 54.956 181.299 57.9496 184.992 57.9496Z" fill="#FDCB6E"/>
<path d="M207.281 80.2377C210.974 80.2377 213.967 77.2441 213.967 73.5512C213.967 69.8584 210.974 66.8647 207.281 66.8647C203.588 66.8647 200.594 69.8584 200.594 73.5512C200.594 77.2441 203.588 80.2377 207.281 80.2377Z" fill="#FDCB6E"/>
<path d="M229.569 57.9496C233.262 57.9496 236.255 54.956 236.255 51.2631C236.255 47.5703 233.262 44.5767 229.569 44.5767C225.876 44.5767 222.882 47.5703 222.882 51.2631C222.882 54.956 225.876 57.9496 229.569 57.9496Z" fill="#FDCB6E"/>
<path d="M251.857 80.2377C255.55 80.2377 258.543 77.2441 258.543 73.5512C258.543 69.8584 255.55 66.8647 251.857 66.8647C248.164 66.8647 245.17 69.8584 245.17 73.5512C245.17 77.2441 248.164 80.2377 251.857 80.2377Z" fill="#FDCB6E"/>
<path d="M274.145 57.9496C277.838 57.9496 280.832 54.956 280.832 51.2631C280.832 47.5703 277.838 44.5767 274.145 44.5767C270.453 44.5767 267.459 47.5703 267.459 51.2631C267.459 54.956 270.453 57.9496 274.145 57.9496Z" fill="#FDCB6E"/>
<path d="M296.434 80.2377C300.126 80.2377 303.12 77.2441 303.12 73.5512C303.12 69.8584 300.126 66.8647 296.434 66.8647C292.741 66.8647 289.747 69.8584 289.747 73.5512C289.747 77.2441 292.741 80.2377 296.434 80.2377Z" fill="#FDCB6E"/>
<path d="M318.722 57.9496C322.414 57.9496 325.408 54.956 325.408 51.2631C325.408 47.5703 322.414 44.5767 318.722 44.5767C315.029 44.5767 312.035 47.5703 312.035 51.2631C312.035 54.956 315.029 57.9496 318.722 57.9496Z" fill="#FDCB6E"/>
<path d="M341.01 80.2377C344.703 80.2377 347.696 77.2441 347.696 73.5512C347.696 69.8584 344.703 66.8647 341.01 66.8647C337.317 66.8647 334.323 69.8584 334.323 73.5512C334.323 77.2441 337.317 80.2377 341.01 80.2377Z" fill="#FDCB6E"/>
<path d="M73.5512 124.814C77.2441 124.814 80.2377 121.821 80.2377 118.128C80.2377 114.435 77.2441 111.441 73.5512 111.441C69.8584 111.441 66.8647 114.435 66.8647 118.128C66.8647 121.821 69.8584 124.814 73.5512 124.814Z" fill="#FDCB6E"/>
<path d="M95.8393 102.526C99.5321 102.526 102.526 99.5321 102.526 95.8393C102.526 92.1465 99.5321 89.1528 95.8393 89.1528C92.1465 89.1528 89.1528 92.1465 89.1528 95.8393C89.1528 99.5321 92.1465 102.526 95.8393 102.526Z" fill="#FDCB6E"/>
<path d="M118.128 124.814C121.821 124.814 124.814 121.821 124.814 118.128C124.814 114.435 121.821 111.441 118.128 111.441C114.435 111.441 111.441 114.435 111.441 118.128C111.441 121.821 114.435 124.814 118.128 124.814Z" fill="#FDCB6E"/>
<path d="M140.416 102.526C144.109 102.526 147.102 99.5321 147.102 95.8393C147.102 92.1465 144.109 89.1528 140.416 89.1528C136.723 89.1528 133.729 92.1465 133.729 95.8393C133.729 99.5321 136.723 102.526 140.416 102.526Z" fill="#FDCB6E"/>
<path d="M162.704 124.814C166.397 124.814 169.391 121.821 169.391 118.128C169.391 114.435 166.397 111.441 162.704 111.441C159.011 111.441 156.018 114.435 156.018 118.128C156.018 121.821 159.011 124.814 162.704 124.814Z" fill="#FDCB6E"/>
<path d="M184.992 102.526C188.685 102.526 191.679 99.5321 191.679 95.8393C191.679 92.1465 188.685 89.1528 184.992 89.1528C181.299 89.1528 178.306 92.1465 178.306 95.8393C178.306 99.5321 181.299 102.526 184.992 102.526Z" fill="#FDCB6E"/>
<path d="M207.281 124.814C210.974 124.814 213.967 121.821 213.967 118.128C213.967 114.435 210.974 111.441 207.281 111.441C203.588 111.441 200.594 114.435 200.594 118.128C200.594 121.821 203.588 124.814 207.281 124.814Z" fill="#FDCB6E"/>
<path d="M229.569 102.526C233.262 102.526 236.255 99.5321 236.255 95.8393C236.255 92.1465 233.262 89.1528 229.569 89.1528C225.876 89.1528 222.882 92.1465 222.882 95.8393C222.882 99.5321 225.876 102.526 229.569 102.526Z" fill="#FDCB6E"/>
<path d="M251.857 124.814C255.55 124.814 258.543 121.821 258.543 118.128C258.543 114.435 255.55 111.441 251.857 111.441C248.164 111.441 245.17 114.435 245.17 118.128C245.17 121.821 248.164 124.814 251.857 124.814Z" fill="#FDCB6E"/>
<path d="M274.145 102.526C277.838 102.526 280.832 99.5321 280.832 95.8393C280.832 92.1465 277.838 89.1528 274.145 89.1528C270.453 89.1528 267.459 92.1465 267.459 95.8393C267.459 99.5321 270.453 102.526 274.145 102.526Z" fill="#FDCB6E"/>
<path d="M296.434 124.814C300.126 124.814 303.12 121.821 303.12 118.128C303.12 114.435 300.126 111.441 296.434 111.441C292.741 111.441 289.747 114.435 289.747 118.128C289.747 121.821 292.741 124.814 296.434 124.814Z" fill="#FDCB6E"/>
<path d="M318.722 102.526C322.414 102.526 325.408 99.5321 325.408 95.8393C325.408 92.1465 322.414 89.1528 318.722 89.1528C315.029 89.1528 312.035 92.1465 312.035 95.8393C312.035 99.5321 315.029 102.526 318.722 102.526Z" fill="#FDCB6E"/>
<path d="M341.01 124.814C344.703 124.814 347.696 121.821 347.696 118.128C347.696 114.435 344.703 111.441 341.01 111.441C337.317 111.441 334.323 114.435 334.323 118.128C334.323 121.821 337.317 124.814 341.01 124.814Z" fill="#FDCB6E"/>
<path d="M95.8393 147.102C99.5321 147.102 102.526 144.109 102.526 140.416C102.526 136.723 99.5321 133.729 95.8393 133.729C92.1465 133.729 89.1528 136.723 89.1528 140.416C89.1528 144.109 92.1465 147.102 95.8393 147.102Z" fill="#FDCB6E"/>
<path d="M118.128 169.391C121.821 169.391 124.814 166.397 124.814 162.704C124.814 159.011 121.821 156.018 118.128 156.018C114.435 156.018 111.441 159.011 111.441 162.704C111.441 166.397 114.435 169.391 118.128 169.391Z" fill="#FDCB6E"/>
<path d="M140.416 147.102C144.109 147.102 147.102 144.109 147.102 140.416C147.102 136.723 144.109 133.729 140.416 133.729C136.723 133.729 133.729 136.723 133.729 140.416C133.729 144.109 136.723 147.102 140.416 147.102Z" fill="#FDCB6E"/>
<path d="M162.704 169.391C166.397 169.391 169.391 166.397 169.391 162.704C169.391 159.011 166.397 156.018 162.704 156.018C159.011 156.018 156.018 159.011 156.018 162.704C156.018 166.397 159.011 169.391 162.704 169.391Z" fill="#FDCB6E"/>
<path d="M184.992 147.102C188.685 147.102 191.679 144.109 191.679 140.416C191.679 136.723 188.685 133.729 184.992 133.729C181.299 133.729 178.306 136.723 178.306 140.416C178.306 144.109 181.299 147.102 184.992 147.102Z" fill="#FDCB6E"/>
<path d="M207.281 169.391C210.974 169.391 213.967 166.397 213.967 162.704C213.967 159.011 210.974 156.018 207.281 156.018C203.588 156.018 200.594 159.011 200.594 162.704C200.594 166.397 203.588 169.391 207.281 169.391Z" fill="#FDCB6E"/>
<path d="M229.569 147.102C233.262 147.102 236.255 144.109 236.255 140.416C236.255 136.723 233.262 133.729 229.569 133.729C225.876 133.729 222.882 136.723 222.882 140.416C222.882 144.109 225.876 147.102 229.569 147.102Z" fill="#FDCB6E"/>
<path d="M251.857 169.391C255.55 169.391 258.543 166.397 258.543 162.704C258.543 159.011 255.55 156.018 251.857 156.018C248.164 156.018 245.17 159.011 245.17 162.704C245.17 166.397 248.164 169.391 251.857 169.391Z" fill="#FDCB6E"/>
<path d="M274.145 147.102C277.838 147.102 280.832 144.109 280.832 140.416C280.832 136.723 277.838 133.729 274.145 133.729C270.453 133.729 267.459 136.723 267.459 140.416C267.459 144.109 270.453 147.102 274.145 147.102Z" fill="#FDCB6E"/>
<path d="M296.434 169.391C300.126 169.391 303.12 166.397 303.12 162.704C303.12 159.011 300.126 156.018 296.434 156.018C292.741 156.018 289.747 159.011 289.747 162.704C289.747 166.397 292.741 169.391 296.434 169.391Z" fill="#FDCB6E"/>
<path d="M318.722 147.102C322.414 147.102 325.408 144.109 325.408 140.416C325.408 136.723 322.414 133.729 318.722 133.729C315.029 133.729 312.035 136.723 312.035 140.416C312.035 144.109 315.029 147.102 318.722 147.102Z" fill="#FDCB6E"/>
<path d="M341.01 169.391C344.703 169.391 347.696 166.397 347.696 162.704C347.696 159.011 344.703 156.018 341.01 156.018C337.317 156.018 334.323 159.011 334.323 162.704C334.323 166.397 337.317 169.391 341.01 169.391Z" fill="#FDCB6E"/>
<path d="M140.416 191.679C144.109 191.679 147.102 188.685 147.102 184.992C147.102 181.299 144.109 178.306 140.416 178.306C136.723 178.306 133.729 181.299 133.729 184.992C133.729 188.685 136.723 191.679 140.416 191.679Z" fill="#FDCB6E"/>
<path d="M162.704 213.967C166.397 213.967 169.391 210.974 169.391 207.281C169.391 203.588 166.397 200.594 162.704 200.594C159.011 200.594 156.018 203.588 156.018 207.281C156.018 210.974 159.011 213.967 162.704 213.967Z" fill="#FDCB6E"/>
<path d="M184.992 191.679C188.685 191.679 191.679 188.685 191.679 184.992C191.679 181.299 188.685 178.306 184.992 178.306C181.299 178.306 178.306 181.299 178.306 184.992C178.306 188.685 181.299 191.679 184.992 191.679Z" fill="#FDCB6E"/>
<path d="M207.281 213.967C210.974 213.967 213.967 210.974 213.967 207.281C213.967 203.588 210.974 200.594 207.281 200.594C203.588 200.594 200.594 203.588 200.594 207.281C200.594 210.974 203.588 213.967 207.281 213.967Z" fill="#FDCB6E"/>
<path d="M229.569 191.679C233.262 191.679 236.255 188.685 236.255 184.992C236.255 181.299 233.262 178.306 229.569 178.306C225.876 178.306 222.882 181.299 222.882 184.992C222.882 188.685 225.876 191.679 229.569 191.679Z" fill="#FDCB6E"/>
<path d="M251.857 213.967C255.55 213.967 258.543 210.974 258.543 207.281C258.543 203.588 255.55 200.594 251.857 200.594C248.164 200.594 245.17 203.588 245.17 207.281C245.17 210.974 248.164 213.967 251.857 213.967Z" fill="#FDCB6E"/>
<path d="M274.145 191.679C277.838 191.679 280.832 188.685 280.832 184.992C280.832 181.299 277.838 178.306 274.145 178.306C270.453 178.306 267.459 181.299 267.459 184.992C267.459 188.685 270.453 191.679 274.145 191.679Z" fill="#FDCB6E"/>
<path d="M296.434 213.967C300.126 213.967 303.12 210.974 303.12 207.281C303.12 203.588 300.126 200.594 296.434 200.594C292.741 200.594 289.747 203.588 289.747 207.281C289.747 210.974 292.741 213.967 296.434 213.967Z" fill="#FDCB6E"/>
<path d="M318.722 191.679C322.414 191.679 325.408 188.685 325.408 184.992C325.408 181.299 322.414 178.306 318.722 178.306C315.029 178.306 312.035 181.299 312.035 184.992C312.035 188.685 315.029 191.679 318.722 191.679Z" fill="#FDCB6E"/>
<path d="M341.01 213.967C344.703 213.967 347.696 210.974 347.696 207.281C347.696 203.588 344.703 200.594 341.01 200.594C337.317 200.594 334.323 203.588 334.323 207.281C334.323 210.974 337.317 213.967 341.01 213.967Z" fill="#FDCB6E"/>
<path d="M184.992 236.255C188.685 236.255 191.679 233.262 191.679 229.569C191.679 225.876 188.685 222.882 184.992 222.882C181.299 222.882 178.306 225.876 178.306 229.569C178.306 233.262 181.299 236.255 184.992 236.255Z" fill="#FDCB6E"/>
<path d="M207.281 258.543C210.974 258.543 213.967 255.55 213.967 251.857C213.967 248.164 210.974 245.17 207.281 245.17C203.588 245.17 200.594 248.164 200.594 251.857C200.594 255.55 203.588 258.543 207.281 258.543Z" fill="#FDCB6E"/>
<path d="M229.569 236.255C233.262 236.255 236.255 233.262 236.255 229.569C236.255 225.876 233.262 222.882 229.569 222.882C225.876 222.882 222.882 225.876 222.882 229.569C222.882 233.262 225.876 236.255 229.569 236.255Z" fill="#FDCB6E"/>
<path d="M251.857 258.543C255.55 258.543 258.543 255.55 258.543 251.857C258.543 248.164 255.55 245.17 251.857 245.17C248.164 245.17 245.17 248.164 245.17 251.857C245.17 255.55 248.164 258.543 251.857 258.543Z" fill="#FDCB6E"/>
<path d="M274.145 236.255C277.838 236.255 280.832 233.262 280.832 229.569C280.832 225.876 277.838 222.882 274.145 222.882C270.453 222.882 267.459 225.876 267.459 229.569C267.459 233.262 270.453 236.255 274.145 236.255Z" fill="#FDCB6E"/>
<path d="M296.434 258.543C300.126 258.543 303.12 255.55 303.12 251.857C303.12 248.164 300.126 245.17 296.434 245.17C292.741 245.17 289.747 248.164 289.747 251.857C289.747 255.55 292.741 258.543 296.434 258.543Z" fill="#FDCB6E"/>
<path d="M318.722 236.255C322.414 236.255 325.408 233.262 325.408 229.569C325.408 225.876 322.414 222.882 318.722 222.882C315.029 222.882 312.035 225.876 312.035 229.569C312.035 233.262 315.029 236.255 318.722 236.255Z" fill="#FDCB6E"/>
<path d="M341.01 258.543C344.703 258.543 347.696 255.55 347.696 251.857C347.696 248.164 344.703 245.17 341.01 245.17C337.317 245.17 334.323 248.164 334.323 251.857C334.323 255.55 337.317 258.543 341.01 258.543Z" fill="#FDCB6E"/>
<path d="M28.9746 303.12C32.6674 303.12 35.661 300.126 35.661 296.434C35.661 292.741 32.6674 289.747 28.9746 289.747C25.2817 289.747 22.2881 292.741 22.2881 296.434C22.2881 300.126 25.2817 303.12 28.9746 303.12Z" fill="#FDCB6E"/>
<path d="M73.5512 303.12C77.2441 303.12 80.2377 300.126 80.2377 296.434C80.2377 292.741 77.2441 289.747 73.5512 289.747C69.8584 289.747 66.8647 292.741 66.8647 296.434C66.8647 300.126 69.8584 303.12 73.5512 303.12Z" fill="#FDCB6E"/>
<path d="M118.128 303.12C121.821 303.12 124.814 300.126 124.814 296.434C124.814 292.741 121.821 289.747 118.128 289.747C114.435 289.747 111.441 292.741 111.441 296.434C111.441 300.126 114.435 303.12 118.128 303.12Z" fill="#FDCB6E"/>
<path d="M162.704 303.12C166.397 303.12 169.391 300.126 169.391 296.434C169.391 292.741 166.397 289.747 162.704 289.747C159.011 289.747 156.018 292.741 156.018 296.434C156.018 300.126 159.011 303.12 162.704 303.12Z" fill="#FDCB6E"/>
<path d="M207.281 303.12C210.974 303.12 213.967 300.126 213.967 296.434C213.967 292.741 210.974 289.747 207.281 289.747C203.588 289.747 200.594 292.741 200.594 296.434C200.594 300.126 203.588 303.12 207.281 303.12Z" fill="#FDCB6E"/>
<path d="M229.569 280.832C233.262 280.832 236.255 277.838 236.255 274.145C236.255 270.453 233.262 267.459 229.569 267.459C225.876 267.459 222.882 270.453 222.882 274.145C222.882 277.838 225.876 280.832 229.569 280.832Z" fill="#FDCB6E"/>
<path d="M251.857 303.12C255.55 303.12 258.543 300.126 258.543 296.434C258.543 292.741 255.55 289.747 251.857 289.747C248.164 289.747 245.17 292.741 245.17 296.434C245.17 300.126 248.164 303.12 251.857 303.12Z" fill="#FDCB6E"/>
<path d="M274.145 280.832C277.838 280.832 280.832 277.838 280.832 274.145C280.832 270.453 277.838 267.459 274.145 267.459C270.453 267.459 267.459 270.453 267.459 274.145C267.459 277.838 270.453 280.832 274.145 280.832Z" fill="#FDCB6E"/>
<path d="M296.434 303.12C300.126 303.12 303.12 300.126 303.12 296.434C303.12 292.741 300.126 289.747 296.434 289.747C292.741 289.747 289.747 292.741 289.747 296.434C289.747 300.126 292.741 303.12 296.434 303.12Z" fill="#FDCB6E"/>
<path d="M318.722 280.832C322.414 280.832 325.408 277.838 325.408 274.145C325.408 270.453 322.414 267.459 318.722 267.459C315.029 267.459 312.035 270.453 312.035 274.145C312.035 277.838 315.029 280.832 318.722 280.832Z" fill="#FDCB6E"/>
<path d="M341.01 303.12C344.703 303.12 347.696 300.126 347.696 296.434C347.696 292.741 344.703 289.747 341.01 289.747C337.317 289.747 334.323 292.741 334.323 296.434C334.323 300.126 337.317 303.12 341.01 303.12Z" fill="#FDCB6E"/>
<path d="M363.298 13.3729C366.991 13.3729 369.985 10.3793 369.985 6.68647C369.985 2.99363 366.991 0 363.298 0C359.605 0 356.612 2.99363 356.612 6.68647C356.612 10.3793 359.605 13.3729 363.298 13.3729Z" fill="#FDCB6E"/>
<path d="M385.586 35.661C389.279 35.661 392.273 32.6674 392.273 28.9746C392.273 25.2817 389.279 22.2881 385.586 22.2881C381.894 22.2881 378.9 25.2817 378.9 28.9746C378.9 32.6674 381.894 35.661 385.586 35.661Z" fill="#FDCB6E"/>
<path d="M407.874 13.3729C411.567 13.3729 414.561 10.3793 414.561 6.68647C414.561 2.99363 411.567 0 407.874 0C404.182 0 401.188 2.99363 401.188 6.68647C401.188 10.3793 404.182 13.3729 407.874 13.3729Z" fill="#FDCB6E"/>
<path d="M430.163 35.661C433.856 35.661 436.85 32.6674 436.85 28.9746C436.85 25.2817 433.856 22.2881 430.163 22.2881C426.47 22.2881 423.477 25.2817 423.477 28.9746C423.477 32.6674 426.47 35.661 430.163 35.661Z" fill="#FDCB6E"/>
<path d="M452.451 13.3729C456.144 13.3729 459.138 10.3793 459.138 6.68647C459.138 2.99363 456.144 0 452.451 0C448.758 0 445.765 2.99363 445.765 6.68647C445.765 10.3793 448.758 13.3729 452.451 13.3729Z" fill="#FDCB6E"/>
<path d="M474.739 35.661C478.432 35.661 481.426 32.6674 481.426 28.9746C481.426 25.2817 478.432 22.2881 474.739 22.2881C471.046 22.2881 468.053 25.2817 468.053 28.9746C468.053 32.6674 471.046 35.661 474.739 35.661Z" fill="#FDCB6E"/>
<path d="M497.028 13.3729C500.721 13.3729 503.714 10.3793 503.714 6.68647C503.714 2.99363 500.721 0 497.028 0C493.335 0 490.341 2.99363 490.341 6.68647C490.341 10.3793 493.335 13.3729 497.028 13.3729Z" fill="#FDCB6E"/>
<path d="M519.316 35.661C523.009 35.661 526.002 32.6674 526.002 28.9746C526.002 25.2817 523.009 22.2881 519.316 22.2881C515.623 22.2881 512.629 25.2817 512.629 28.9746C512.629 32.6674 515.623 35.661 519.316 35.661Z" fill="#FDCB6E"/>
<path d="M541.604 13.3729C545.297 13.3729 548.29 10.3793 548.29 6.68647C548.29 2.99363 545.297 0 541.604 0C537.911 0 534.917 2.99363 534.917 6.68647C534.917 10.3793 537.911 13.3729 541.604 13.3729Z" fill="#FDCB6E"/>
<path d="M563.893 35.661C567.585 35.661 570.579 32.6674 570.579 28.9746C570.579 25.2817 567.585 22.2881 563.893 22.2881C560.2 22.2881 557.206 25.2817 557.206 28.9746C557.206 32.6674 560.2 35.661 563.893 35.661Z" fill="#FDCB6E"/>
<path d="M586.181 13.3729C589.873 13.3729 592.867 10.3793 592.867 6.68647C592.867 2.99363 589.873 0 586.181 0C582.488 0 579.494 2.99363 579.494 6.68647C579.494 10.3793 582.488 13.3729 586.181 13.3729Z" fill="#FDCB6E"/>
<path d="M608.469 35.661C612.162 35.661 615.155 32.6674 615.155 28.9746C615.155 25.2817 612.162 22.2881 608.469 22.2881C604.776 22.2881 601.782 25.2817 601.782 28.9746C601.782 32.6674 604.776 35.661 608.469 35.661Z" fill="#FDCB6E"/>
<path d="M630.757 13.3729C634.45 13.3729 637.443 10.3793 637.443 6.68647C637.443 2.99363 634.45 0 630.757 0C627.064 0 624.07 2.99363 624.07 6.68647C624.07 10.3793 627.064 13.3729 630.757 13.3729Z" fill="#FDCB6E"/>
<path d="M653.045 35.661C656.738 35.661 659.732 32.6674 659.732 28.9746C659.732 25.2817 656.738 22.2881 653.045 22.2881C649.353 22.2881 646.359 25.2817 646.359 28.9746C646.359 32.6674 649.353 35.661 653.045 35.661Z" fill="#FDCB6E"/>
<path d="M675.333 13.3729C679.026 13.3729 682.02 10.3793 682.02 6.68647C682.02 2.99363 679.026 0 675.333 0C671.641 0 668.647 2.99363 668.647 6.68647C668.647 10.3793 671.641 13.3729 675.333 13.3729Z" fill="#FDCB6E"/>
<path d="M697.622 35.661C701.314 35.661 704.308 32.6674 704.308 28.9746C704.308 25.2817 701.314 22.2881 697.622 22.2881C693.929 22.2881 690.935 25.2817 690.935 28.9746C690.935 32.6674 693.929 35.661 697.622 35.661Z" fill="#FDCB6E"/>
<path d="M363.298 57.9496C366.991 57.9496 369.985 54.956 369.985 51.2631C369.985 47.5703 366.991 44.5767 363.298 44.5767C359.605 44.5767 356.612 47.5703 356.612 51.2631C356.612 54.956 359.605 57.9496 363.298 57.9496Z" fill="#FDCB6E"/>
<path d="M385.586 80.2377C389.279 80.2377 392.273 77.2441 392.273 73.5512C392.273 69.8584 389.279 66.8647 385.586 66.8647C381.894 66.8647 378.9 69.8584 378.9 73.5512C378.9 77.2441 381.894 80.2377 385.586 80.2377Z" fill="#FDCB6E"/>
<path d="M407.874 57.9496C411.567 57.9496 414.561 54.956 414.561 51.2631C414.561 47.5703 411.567 44.5767 407.874 44.5767C404.182 44.5767 401.188 47.5703 401.188 51.2631C401.188 54.956 404.182 57.9496 407.874 57.9496Z" fill="#FDCB6E"/>
<path d="M430.163 80.2377C433.856 80.2377 436.85 77.2441 436.85 73.5512C436.85 69.8584 433.856 66.8647 430.163 66.8647C426.47 66.8647 423.477 69.8584 423.477 73.5512C423.477 77.2441 426.47 80.2377 430.163 80.2377Z" fill="#FDCB6E"/>
<path d="M452.451 57.9496C456.144 57.9496 459.138 54.956 459.138 51.2631C459.138 47.5703 456.144 44.5767 452.451 44.5767C448.758 44.5767 445.765 47.5703 445.765 51.2631C445.765 54.956 448.758 57.9496 452.451 57.9496Z" fill="#FDCB6E"/>
<path d="M474.739 80.2377C478.432 80.2377 481.426 77.2441 481.426 73.5512C481.426 69.8584 478.432 66.8647 474.739 66.8647C471.046 66.8647 468.053 69.8584 468.053 73.5512C468.053 77.2441 471.046 80.2377 474.739 80.2377Z" fill="#FDCB6E"/>
<path d="M497.028 57.9496C500.721 57.9496 503.714 54.956 503.714 51.2631C503.714 47.5703 500.721 44.5767 497.028 44.5767C493.335 44.5767 490.341 47.5703 490.341 51.2631C490.341 54.956 493.335 57.9496 497.028 57.9496Z" fill="#FDCB6E"/>
<path d="M519.316 80.2377C523.009 80.2377 526.002 77.2441 526.002 73.5512C526.002 69.8584 523.009 66.8647 519.316 66.8647C515.623 66.8647 512.629 69.8584 512.629 73.5512C512.629 77.2441 515.623 80.2377 519.316 80.2377Z" fill="#FDCB6E"/>
<path d="M541.604 57.9496C545.297 57.9496 548.29 54.956 548.29 51.2631C548.29 47.5703 545.297 44.5767 541.604 44.5767C537.911 44.5767 534.917 47.5703 534.917 51.2631C534.917 54.956 537.911 57.9496 541.604 57.9496Z" fill="#FDCB6E"/>
<path d="M563.893 80.2377C567.585 80.2377 570.579 77.2441 570.579 73.5512C570.579 69.8584 567.585 66.8647 563.893 66.8647C560.2 66.8647 557.206 69.8584 557.206 73.5512C557.206 77.2441 560.2 80.2377 563.893 80.2377Z" fill="#FDCB6E"/>
<path d="M586.181 57.9496C589.873 57.9496 592.867 54.956 592.867 51.2631C592.867 47.5703 589.873 44.5767 586.181 44.5767C582.488 44.5767 579.494 47.5703 579.494 51.2631C579.494 54.956 582.488 57.9496 586.181 57.9496Z" fill="#FDCB6E"/>
<path d="M608.469 80.2377C612.162 80.2377 615.155 77.2441 615.155 73.5512C615.155 69.8584 612.162 66.8647 608.469 66.8647C604.776 66.8647 601.782 69.8584 601.782 73.5512C601.782 77.2441 604.776 80.2377 608.469 80.2377Z" fill="#FDCB6E"/>
<path d="M630.757 57.9496C634.45 57.9496 637.443 54.956 637.443 51.2631C637.443 47.5703 634.45 44.5767 630.757 44.5767C627.064 44.5767 624.07 47.5703 624.07 51.2631C624.07 54.956 627.064 57.9496 630.757 57.9496Z" fill="#FDCB6E"/>
<path d="M653.045 80.2377C656.738 80.2377 659.732 77.2441 659.732 73.5512C659.732 69.8584 656.738 66.8647 653.045 66.8647C649.353 66.8647 646.359 69.8584 646.359 73.5512C646.359 77.2441 649.353 80.2377 653.045 80.2377Z" fill="#FDCB6E"/>
<path d="M675.333 57.9496C679.026 57.9496 682.02 54.956 682.02 51.2631C682.02 47.5703 679.026 44.5767 675.333 44.5767C671.641 44.5767 668.647 47.5703 668.647 51.2631C668.647 54.956 671.641 57.9496 675.333 57.9496Z" fill="#FDCB6E"/>
<path d="M697.622 80.2377C701.314 80.2377 704.308 77.2441 704.308 73.5512C704.308 69.8584 701.314 66.8647 697.622 66.8647C693.929 66.8647 690.935 69.8584 690.935 73.5512C690.935 77.2441 693.929 80.2377 697.622 80.2377Z" fill="#FDCB6E"/>
<path d="M363.298 102.526C366.991 102.526 369.985 99.5321 369.985 95.8393C369.985 92.1465 366.991 89.1528 363.298 89.1528C359.605 89.1528 356.612 92.1465 356.612 95.8393C356.612 99.5321 359.605 102.526 363.298 102.526Z" fill="#FDCB6E"/>
<path d="M385.586 124.814C389.279 124.814 392.273 121.821 392.273 118.128C392.273 114.435 389.279 111.441 385.586 111.441C381.894 111.441 378.9 114.435 378.9 118.128C378.9 121.821 381.894 124.814 385.586 124.814Z" fill="#FDCB6E"/>
<path d="M407.874 102.526C411.567 102.526 414.561 99.5321 414.561 95.8393C414.561 92.1465 411.567 89.1528 407.874 89.1528C404.182 89.1528 401.188 92.1465 401.188 95.8393C401.188 99.5321 404.182 102.526 407.874 102.526Z" fill="#FDCB6E"/>
<path d="M430.163 124.814C433.856 124.814 436.85 121.821 436.85 118.128C436.85 114.435 433.856 111.441 430.163 111.441C426.47 111.441 423.477 114.435 423.477 118.128C423.477 121.821 426.47 124.814 430.163 124.814Z" fill="#FDCB6E"/>
<path d="M452.451 102.526C456.144 102.526 459.138 99.5321 459.138 95.8393C459.138 92.1465 456.144 89.1528 452.451 89.1528C448.758 89.1528 445.765 92.1465 445.765 95.8393C445.765 99.5321 448.758 102.526 452.451 102.526Z" fill="#FDCB6E"/>
<path d="M474.739 124.814C478.432 124.814 481.426 121.821 481.426 118.128C481.426 114.435 478.432 111.441 474.739 111.441C471.046 111.441 468.053 114.435 468.053 118.128C468.053 121.821 471.046 124.814 474.739 124.814Z" fill="#FDCB6E"/>
<path d="M497.028 102.526C500.721 102.526 503.714 99.5321 503.714 95.8393C503.714 92.1465 500.721 89.1528 497.028 89.1528C493.335 89.1528 490.341 92.1465 490.341 95.8393C490.341 99.5321 493.335 102.526 497.028 102.526Z" fill="#FDCB6E"/>
<path d="M519.316 124.814C523.009 124.814 526.002 121.821 526.002 118.128C526.002 114.435 523.009 111.441 519.316 111.441C515.623 111.441 512.629 114.435 512.629 118.128C512.629 121.821 515.623 124.814 519.316 124.814Z" fill="#FDCB6E"/>
<path d="M541.604 102.526C545.297 102.526 548.29 99.5321 548.29 95.8393C548.29 92.1465 545.297 89.1528 541.604 89.1528C537.911 89.1528 534.917 92.1465 534.917 95.8393C534.917 99.5321 537.911 102.526 541.604 102.526Z" fill="#FDCB6E"/>
<path d="M563.893 124.814C567.585 124.814 570.579 121.821 570.579 118.128C570.579 114.435 567.585 111.441 563.893 111.441C560.2 111.441 557.206 114.435 557.206 118.128C557.206 121.821 560.2 124.814 563.893 124.814Z" fill="#FDCB6E"/>
<path d="M586.181 102.526C589.873 102.526 592.867 99.5321 592.867 95.8393C592.867 92.1465 589.873 89.1528 586.181 89.1528C582.488 89.1528 579.494 92.1465 579.494 95.8393C579.494 99.5321 582.488 102.526 586.181 102.526Z" fill="#FDCB6E"/>
<path d="M608.469 124.814C612.162 124.814 615.155 121.821 615.155 118.128C615.155 114.435 612.162 111.441 608.469 111.441C604.776 111.441 601.782 114.435 601.782 118.128C601.782 121.821 604.776 124.814 608.469 124.814Z" fill="#FDCB6E"/>
<path d="M630.757 102.526C634.45 102.526 637.443 99.5321 637.443 95.8393C637.443 92.1465 634.45 89.1528 630.757 89.1528C627.064 89.1528 624.07 92.1465 624.07 95.8393C624.07 99.5321 627.064 102.526 630.757 102.526Z" fill="#FDCB6E"/>
<path d="M653.045 124.814C656.738 124.814 659.732 121.821 659.732 118.128C659.732 114.435 656.738 111.441 653.045 111.441C649.353 111.441 646.359 114.435 646.359 118.128C646.359 121.821 649.353 124.814 653.045 124.814Z" fill="#FDCB6E"/>
<path d="M675.333 102.526C679.026 102.526 682.02 99.5321 682.02 95.8393C682.02 92.1465 679.026 89.1528 675.333 89.1528C671.641 89.1528 668.647 92.1465 668.647 95.8393C668.647 99.5321 671.641 102.526 675.333 102.526Z" fill="#FDCB6E"/>
<path d="M697.622 124.814C701.314 124.814 704.308 121.821 704.308 118.128C704.308 114.435 701.314 111.441 697.622 111.441C693.929 111.441 690.935 114.435 690.935 118.128C690.935 121.821 693.929 124.814 697.622 124.814Z" fill="#FDCB6E"/>
<path d="M363.298 147.102C366.991 147.102 369.985 144.109 369.985 140.416C369.985 136.723 366.991 133.729 363.298 133.729C359.605 133.729 356.612 136.723 356.612 140.416C356.612 144.109 359.605 147.102 363.298 147.102Z" fill="#FDCB6E"/>
<path d="M385.586 169.391C389.279 169.391 392.273 166.397 392.273 162.704C392.273 159.011 389.279 156.018 385.586 156.018C381.894 156.018 378.9 159.011 378.9 162.704C378.9 166.397 381.894 169.391 385.586 169.391Z" fill="#FDCB6E"/>
<path d="M407.874 147.102C411.567 147.102 414.561 144.109 414.561 140.416C414.561 136.723 411.567 133.729 407.874 133.729C404.182 133.729 401.188 136.723 401.188 140.416C401.188 144.109 404.182 147.102 407.874 147.102Z" fill="#FDCB6E"/>
<path d="M430.163 169.391C433.856 169.391 436.85 166.397 436.85 162.704C436.85 159.011 433.856 156.018 430.163 156.018C426.47 156.018 423.477 159.011 423.477 162.704C423.477 166.397 426.47 169.391 430.163 169.391Z" fill="#FDCB6E"/>
<path d="M452.451 147.102C456.144 147.102 459.138 144.109 459.138 140.416C459.138 136.723 456.144 133.729 452.451 133.729C448.758 133.729 445.765 136.723 445.765 140.416C445.765 144.109 448.758 147.102 452.451 147.102Z" fill="#FDCB6E"/>
<path d="M474.739 169.391C478.432 169.391 481.426 166.397 481.426 162.704C481.426 159.011 478.432 156.018 474.739 156.018C471.046 156.018 468.053 159.011 468.053 162.704C468.053 166.397 471.046 169.391 474.739 169.391Z" fill="#FDCB6E"/>
<path d="M497.028 147.102C500.721 147.102 503.714 144.109 503.714 140.416C503.714 136.723 500.721 133.729 497.028 133.729C493.335 133.729 490.341 136.723 490.341 140.416C490.341 144.109 493.335 147.102 497.028 147.102Z" fill="#FDCB6E"/>
<path d="M519.316 169.391C523.009 169.391 526.002 166.397 526.002 162.704C526.002 159.011 523.009 156.018 519.316 156.018C515.623 156.018 512.629 159.011 512.629 162.704C512.629 166.397 515.623 169.391 519.316 169.391Z" fill="#FDCB6E"/>
<path d="M541.604 147.102C545.297 147.102 548.29 144.109 548.29 140.416C548.29 136.723 545.297 133.729 541.604 133.729C537.911 133.729 534.917 136.723 534.917 140.416C534.917 144.109 537.911 147.102 541.604 147.102Z" fill="#FDCB6E"/>
<path d="M563.893 169.391C567.585 169.391 570.579 166.397 570.579 162.704C570.579 159.011 567.585 156.018 563.893 156.018C560.2 156.018 557.206 159.011 557.206 162.704C557.206 166.397 560.2 169.391 563.893 169.391Z" fill="#FDCB6E"/>
<path d="M586.181 147.102C589.873 147.102 592.867 144.109 592.867 140.416C592.867 136.723 589.873 133.729 586.181 133.729C582.488 133.729 579.494 136.723 579.494 140.416C579.494 144.109 582.488 147.102 586.181 147.102Z" fill="#FDCB6E"/>
<path d="M608.469 169.391C612.162 169.391 615.155 166.397 615.155 162.704C615.155 159.011 612.162 156.018 608.469 156.018C604.776 156.018 601.782 159.011 601.782 162.704C601.782 166.397 604.776 169.391 608.469 169.391Z" fill="#FDCB6E"/>
<path d="M630.757 147.102C634.45 147.102 637.443 144.109 637.443 140.416C637.443 136.723 634.45 133.729 630.757 133.729C627.064 133.729 624.07 136.723 624.07 140.416C624.07 144.109 627.064 147.102 630.757 147.102Z" fill="#FDCB6E"/>
<path d="M653.045 169.391C656.738 169.391 659.732 166.397 659.732 162.704C659.732 159.011 656.738 156.018 653.045 156.018C649.353 156.018 646.359 159.011 646.359 162.704C646.359 166.397 649.353 169.391 653.045 169.391Z" fill="#FDCB6E"/>
<path d="M675.333 147.102C679.026 147.102 682.02 144.109 682.02 140.416C682.02 136.723 679.026 133.729 675.333 133.729C671.641 133.729 668.647 136.723 668.647 140.416C668.647 144.109 671.641 147.102 675.333 147.102Z" fill="#FDCB6E"/>
<path d="M697.622 169.391C701.314 169.391 704.308 166.397 704.308 162.704C704.308 159.011 701.314 156.018 697.622 156.018C693.929 156.018 690.935 159.011 690.935 162.704C690.935 166.397 693.929 169.391 697.622 169.391Z" fill="#FDCB6E"/>
<path d="M363.298 191.679C366.991 191.679 369.985 188.685 369.985 184.992C369.985 181.299 366.991 178.306 363.298 178.306C359.605 178.306 356.612 181.299 356.612 184.992C356.612 188.685 359.605 191.679 363.298 191.679Z" fill="#FDCB6E"/>
<path d="M385.586 213.967C389.279 213.967 392.273 210.974 392.273 207.281C392.273 203.588 389.279 200.594 385.586 200.594C381.894 200.594 378.9 203.588 378.9 207.281C378.9 210.974 381.894 213.967 385.586 213.967Z" fill="#FDCB6E"/>
<path d="M407.874 191.679C411.567 191.679 414.561 188.685 414.561 184.992C414.561 181.299 411.567 178.306 407.874 178.306C404.182 178.306 401.188 181.299 401.188 184.992C401.188 188.685 404.182 191.679 407.874 191.679Z" fill="#FDCB6E"/>
<path d="M430.163 213.967C433.856 213.967 436.85 210.974 436.85 207.281C436.85 203.588 433.856 200.594 430.163 200.594C426.47 200.594 423.477 203.588 423.477 207.281C423.477 210.974 426.47 213.967 430.163 213.967Z" fill="#FDCB6E"/>
<path d="M452.451 191.679C456.144 191.679 459.138 188.685 459.138 184.992C459.138 181.299 456.144 178.306 452.451 178.306C448.758 178.306 445.765 181.299 445.765 184.992C445.765 188.685 448.758 191.679 452.451 191.679Z" fill="#FDCB6E"/>
<path d="M474.739 213.967C478.432 213.967 481.426 210.974 481.426 207.281C481.426 203.588 478.432 200.594 474.739 200.594C471.046 200.594 468.053 203.588 468.053 207.281C468.053 210.974 471.046 213.967 474.739 213.967Z" fill="#FDCB6E"/>
<path d="M497.028 191.679C500.721 191.679 503.714 188.685 503.714 184.992C503.714 181.299 500.721 178.306 497.028 178.306C493.335 178.306 490.341 181.299 490.341 184.992C490.341 188.685 493.335 191.679 497.028 191.679Z" fill="#FDCB6E"/>
<path d="M519.316 213.967C523.009 213.967 526.002 210.974 526.002 207.281C526.002 203.588 523.009 200.594 519.316 200.594C515.623 200.594 512.629 203.588 512.629 207.281C512.629 210.974 515.623 213.967 519.316 213.967Z" fill="#FDCB6E"/>
<path d="M541.604 191.679C545.297 191.679 548.29 188.685 548.29 184.992C548.29 181.299 545.297 178.306 541.604 178.306C537.911 178.306 534.917 181.299 534.917 184.992C534.917 188.685 537.911 191.679 541.604 191.679Z" fill="#FDCB6E"/>
<path d="M563.893 213.967C567.585 213.967 570.579 210.974 570.579 207.281C570.579 203.588 567.585 200.594 563.893 200.594C560.2 200.594 557.206 203.588 557.206 207.281C557.206 210.974 560.2 213.967 563.893 213.967Z" fill="#FDCB6E"/>
<path d="M586.181 191.679C589.873 191.679 592.867 188.685 592.867 184.992C592.867 181.299 589.873 178.306 586.181 178.306C582.488 178.306 579.494 181.299 579.494 184.992C579.494 188.685 582.488 191.679 586.181 191.679Z" fill="#FDCB6E"/>
<path d="M608.469 213.967C612.162 213.967 615.155 210.974 615.155 207.281C615.155 203.588 612.162 200.594 608.469 200.594C604.776 200.594 601.782 203.588 601.782 207.281C601.782 210.974 604.776 213.967 608.469 213.967Z" fill="#FDCB6E"/>
<path d="M630.757 191.679C634.45 191.679 637.443 188.685 637.443 184.992C637.443 181.299 634.45 178.306 630.757 178.306C627.064 178.306 624.07 181.299 624.07 184.992C624.07 188.685 627.064 191.679 630.757 191.679Z" fill="#FDCB6E"/>
<path d="M653.045 213.967C656.738 213.967 659.732 210.974 659.732 207.281C659.732 203.588 656.738 200.594 653.045 200.594C649.353 200.594 646.359 203.588 646.359 207.281C646.359 210.974 649.353 213.967 653.045 213.967Z" fill="#FDCB6E"/>
<path d="M675.333 191.679C679.026 191.679 682.02 188.685 682.02 184.992C682.02 181.299 679.026 178.306 675.333 178.306C671.641 178.306 668.647 181.299 668.647 184.992C668.647 188.685 671.641 191.679 675.333 191.679Z" fill="#FDCB6E"/>
<path d="M697.622 213.967C701.314 213.967 704.308 210.974 704.308 207.281C704.308 203.588 701.314 200.594 697.622 200.594C693.929 200.594 690.935 203.588 690.935 207.281C690.935 210.974 693.929 213.967 697.622 213.967Z" fill="#FDCB6E"/>
<path d="M363.298 236.255C366.991 236.255 369.985 233.262 369.985 229.569C369.985 225.876 366.991 222.882 363.298 222.882C359.605 222.882 356.612 225.876 356.612 229.569C356.612 233.262 359.605 236.255 363.298 236.255Z" fill="#FDCB6E"/>
<path d="M385.586 258.543C389.279 258.543 392.273 255.55 392.273 251.857C392.273 248.164 389.279 245.17 385.586 245.17C381.894 245.17 378.9 248.164 378.9 251.857C378.9 255.55 381.894 258.543 385.586 258.543Z" fill="#FDCB6E"/>
<path d="M407.874 236.255C411.567 236.255 414.561 233.262 414.561 229.569C414.561 225.876 411.567 222.882 407.874 222.882C404.182 222.882 401.188 225.876 401.188 229.569C401.188 233.262 404.182 236.255 407.874 236.255Z" fill="#FDCB6E"/>
<path d="M430.163 258.543C433.856 258.543 436.85 255.55 436.85 251.857C436.85 248.164 433.856 245.17 430.163 245.17C426.47 245.17 423.477 248.164 423.477 251.857C423.477 255.55 426.47 258.543 430.163 258.543Z" fill="#FDCB6E"/>
<path d="M452.451 236.255C456.144 236.255 459.138 233.262 459.138 229.569C459.138 225.876 456.144 222.882 452.451 222.882C448.758 222.882 445.765 225.876 445.765 229.569C445.765 233.262 448.758 236.255 452.451 236.255Z" fill="#FDCB6E"/>
<path d="M474.739 258.543C478.432 258.543 481.426 255.55 481.426 251.857C481.426 248.164 478.432 245.17 474.739 245.17C471.046 245.17 468.053 248.164 468.053 251.857C468.053 255.55 471.046 258.543 474.739 258.543Z" fill="#FDCB6E"/>
<path d="M497.028 236.255C500.721 236.255 503.714 233.262 503.714 229.569C503.714 225.876 500.721 222.882 497.028 222.882C493.335 222.882 490.341 225.876 490.341 229.569C490.341 233.262 493.335 236.255 497.028 236.255Z" fill="#FDCB6E"/>
<path d="M519.316 258.543C523.009 258.543 526.002 255.55 526.002 251.857C526.002 248.164 523.009 245.17 519.316 245.17C515.623 245.17 512.629 248.164 512.629 251.857C512.629 255.55 515.623 258.543 519.316 258.543Z" fill="#FDCB6E"/>
<path d="M541.604 236.255C545.297 236.255 548.29 233.262 548.29 229.569C548.29 225.876 545.297 222.882 541.604 222.882C537.911 222.882 534.917 225.876 534.917 229.569C534.917 233.262 537.911 236.255 541.604 236.255Z" fill="#FDCB6E"/>
<path d="M563.893 258.543C567.585 258.543 570.579 255.55 570.579 251.857C570.579 248.164 567.585 245.17 563.893 245.17C560.2 245.17 557.206 248.164 557.206 251.857C557.206 255.55 560.2 258.543 563.893 258.543Z" fill="#FDCB6E"/>
<path d="M586.181 236.255C589.873 236.255 592.867 233.262 592.867 229.569C592.867 225.876 589.873 222.882 586.181 222.882C582.488 222.882 579.494 225.876 579.494 229.569C579.494 233.262 582.488 236.255 586.181 236.255Z" fill="#FDCB6E"/>
<path d="M608.469 258.543C612.162 258.543 615.155 255.55 615.155 251.857C615.155 248.164 612.162 245.17 608.469 245.17C604.776 245.17 601.782 248.164 601.782 251.857C601.782 255.55 604.776 258.543 608.469 258.543Z" fill="#FDCB6E"/>
<path d="M630.757 236.255C634.45 236.255 637.443 233.262 637.443 229.569C637.443 225.876 634.45 222.882 630.757 222.882C627.064 222.882 624.07 225.876 624.07 229.569C624.07 233.262 627.064 236.255 630.757 236.255Z" fill="#FDCB6E"/>
<path d="M653.045 258.543C656.738 258.543 659.732 255.55 659.732 251.857C659.732 248.164 656.738 245.17 653.045 245.17C649.353 245.17 646.359 248.164 646.359 251.857C646.359 255.55 649.353 258.543 653.045 258.543Z" fill="#FDCB6E"/>
<path d="M675.333 236.255C679.026 236.255 682.02 233.262 682.02 229.569C682.02 225.876 679.026 222.882 675.333 222.882C671.641 222.882 668.647 225.876 668.647 229.569C668.647 233.262 671.641 236.255 675.333 236.255Z" fill="#FDCB6E"/>
<path d="M697.622 258.543C701.314 258.543 704.308 255.55 704.308 251.857C704.308 248.164 701.314 245.17 697.622 245.17C693.929 245.17 690.935 248.164 690.935 251.857C690.935 255.55 693.929 258.543 697.622 258.543Z" fill="#FDCB6E"/>
<path d="M363.298 280.832C366.991 280.832 369.985 277.838 369.985 274.145C369.985 270.453 366.991 267.459 363.298 267.459C359.605 267.459 356.612 270.453 356.612 274.145C356.612 277.838 359.605 280.832 363.298 280.832Z" fill="#FDCB6E"/>
<path d="M385.586 303.12C389.279 303.12 392.273 300.126 392.273 296.434C392.273 292.741 389.279 289.747 385.586 289.747C381.894 289.747 378.9 292.741 378.9 296.434C378.9 300.126 381.894 303.12 385.586 303.12Z" fill="#FDCB6E"/>
<path d="M407.874 280.832C411.567 280.832 414.561 277.838 414.561 274.145C414.561 270.453 411.567 267.459 407.874 267.459C404.182 267.459 401.188 270.453 401.188 274.145C401.188 277.838 404.182 280.832 407.874 280.832Z" fill="#FDCB6E"/>
<path d="M430.163 303.12C433.856 303.12 436.85 300.126 436.85 296.434C436.85 292.741 433.856 289.747 430.163 289.747C426.47 289.747 423.477 292.741 423.477 296.434C423.477 300.126 426.47 303.12 430.163 303.12Z" fill="#FDCB6E"/>
<path d="M452.451 280.832C456.144 280.832 459.138 277.838 459.138 274.145C459.138 270.453 456.144 267.459 452.451 267.459C448.758 267.459 445.765 270.453 445.765 274.145C445.765 277.838 448.758 280.832 452.451 280.832Z" fill="#FDCB6E"/>
<path d="M474.739 303.12C478.432 303.12 481.426 300.126 481.426 296.434C481.426 292.741 478.432 289.747 474.739 289.747C471.046 289.747 468.053 292.741 468.053 296.434C468.053 300.126 471.046 303.12 474.739 303.12Z" fill="#FDCB6E"/>
<path d="M497.028 280.832C500.721 280.832 503.714 277.838 503.714 274.145C503.714 270.453 500.721 267.459 497.028 267.459C493.335 267.459 490.341 270.453 490.341 274.145C490.341 277.838 493.335 280.832 497.028 280.832Z" fill="#FDCB6E"/>
<path d="M519.316 303.12C523.009 303.12 526.002 300.126 526.002 296.434C526.002 292.741 523.009 289.747 519.316 289.747C515.623 289.747 512.629 292.741 512.629 296.434C512.629 300.126 515.623 303.12 519.316 303.12Z" fill="#FDCB6E"/>
<path d="M541.604 280.832C545.297 280.832 548.29 277.838 548.29 274.145C548.29 270.453 545.297 267.459 541.604 267.459C537.911 267.459 534.917 270.453 534.917 274.145C534.917 277.838 537.911 280.832 541.604 280.832Z" fill="#FDCB6E"/>
<path d="M563.893 303.12C567.585 303.12 570.579 300.126 570.579 296.434C570.579 292.741 567.585 289.747 563.893 289.747C560.2 289.747 557.206 292.741 557.206 296.434C557.206 300.126 560.2 303.12 563.893 303.12Z" fill="#FDCB6E"/>
<path d="M586.181 280.832C589.873 280.832 592.867 277.838 592.867 274.145C592.867 270.453 589.873 267.459 586.181 267.459C582.488 267.459 579.494 270.453 579.494 274.145C579.494 277.838 582.488 280.832 586.181 280.832Z" fill="#FDCB6E"/>
<path d="M608.469 303.12C612.162 303.12 615.155 300.126 615.155 296.434C615.155 292.741 612.162 289.747 608.469 289.747C604.776 289.747 601.782 292.741 601.782 296.434C601.782 300.126 604.776 303.12 608.469 303.12Z" fill="#FDCB6E"/>
<path d="M630.757 280.832C634.45 280.832 637.443 277.838 637.443 274.145C637.443 270.453 634.45 267.459 630.757 267.459C627.064 267.459 624.07 270.453 624.07 274.145C624.07 277.838 627.064 280.832 630.757 280.832Z" fill="#FDCB6E"/>
<path d="M653.045 303.12C656.738 303.12 659.732 300.126 659.732 296.434C659.732 292.741 656.738 289.747 653.045 289.747C649.353 289.747 646.359 292.741 646.359 296.434C646.359 300.126 649.353 303.12 653.045 303.12Z" fill="#FDCB6E"/>
<path d="M675.333 280.832C679.026 280.832 682.02 277.838 682.02 274.145C682.02 270.453 679.026 267.459 675.333 267.459C671.641 267.459 668.647 270.453 668.647 274.145C668.647 277.838 671.641 280.832 675.333 280.832Z" fill="#FDCB6E"/>
<path d="M697.622 303.12C701.314 303.12 704.308 300.126 704.308 296.434C704.308 292.741 701.314 289.747 697.622 289.747C693.929 289.747 690.935 292.741 690.935 296.434C690.935 300.126 693.929 303.12 697.622 303.12Z" fill="#FDCB6E"/>
<path d="M719.91 13.3729C723.603 13.3729 726.597 10.3793 726.597 6.68647C726.597 2.99363 723.603 0 719.91 0C716.217 0 713.224 2.99363 713.224 6.68647C713.224 10.3793 716.217 13.3729 719.91 13.3729Z" fill="#FDCB6E"/>
<path d="M742.198 35.661C745.891 35.661 748.885 32.6674 748.885 28.9746C748.885 25.2817 745.891 22.2881 742.198 22.2881C738.505 22.2881 735.512 25.2817 735.512 28.9746C735.512 32.6674 738.505 35.661 742.198 35.661Z" fill="#FDCB6E"/>
<path d="M764.486 13.3729C768.179 13.3729 771.173 10.3793 771.173 6.68647C771.173 2.99363 768.179 0 764.486 0C760.793 0 757.8 2.99363 757.8 6.68647C757.8 10.3793 760.793 13.3729 764.486 13.3729Z" fill="#FDCB6E"/>
<path d="M786.774 35.661C790.467 35.661 793.461 32.6674 793.461 28.9746C793.461 25.2817 790.467 22.2881 786.774 22.2881C783.082 22.2881 780.088 25.2817 780.088 28.9746C780.088 32.6674 783.082 35.661 786.774 35.661Z" fill="#FDCB6E"/>
<path d="M809.063 13.3729C812.756 13.3729 815.749 10.3793 815.749 6.68647C815.749 2.99363 812.756 0 809.063 0C805.37 0 802.376 2.99363 802.376 6.68647C802.376 10.3793 805.37 13.3729 809.063 13.3729Z" fill="#FDCB6E"/>
<path d="M831.351 35.661C835.044 35.661 838.037 32.6674 838.037 28.9746C838.037 25.2817 835.044 22.2881 831.351 22.2881C827.658 22.2881 824.665 25.2817 824.665 28.9746C824.665 32.6674 827.658 35.661 831.351 35.661Z" fill="#FDCB6E"/>
<path d="M853.639 13.3729C857.332 13.3729 860.326 10.3793 860.326 6.68647C860.326 2.99363 857.332 0 853.639 0C849.946 0 846.953 2.99363 846.953 6.68647C846.953 10.3793 849.946 13.3729 853.639 13.3729Z" fill="#FDCB6E"/>
<path d="M875.928 35.661C879.621 35.661 882.614 32.6674 882.614 28.9746C882.614 25.2817 879.621 22.2881 875.928 22.2881C872.235 22.2881 869.241 25.2817 869.241 28.9746C869.241 32.6674 872.235 35.661 875.928 35.661Z" fill="#FDCB6E"/>
<path d="M898.216 13.3729C901.909 13.3729 904.902 10.3793 904.902 6.68647C904.902 2.99363 901.909 0 898.216 0C894.523 0 891.529 2.99363 891.529 6.68647C891.529 10.3793 894.523 13.3729 898.216 13.3729Z" fill="#FDCB6E"/>
<path d="M920.504 35.661C924.197 35.661 927.19 32.6674 927.19 28.9746C927.19 25.2817 924.197 22.2881 920.504 22.2881C916.811 22.2881 913.817 25.2817 913.817 28.9746C913.817 32.6674 916.811 35.661 920.504 35.661Z" fill="#FDCB6E"/>
<path d="M942.792 13.3729C946.485 13.3729 949.478 10.3793 949.478 6.68647C949.478 2.99363 946.485 0 942.792 0C939.099 0 936.105 2.99363 936.105 6.68647C936.105 10.3793 939.099 13.3729 942.792 13.3729Z" fill="#FDCB6E"/>
<path d="M965.081 35.661C968.773 35.661 971.767 32.6674 971.767 28.9746C971.767 25.2817 968.773 22.2881 965.081 22.2881C961.388 22.2881 958.394 25.2817 958.394 28.9746C958.394 32.6674 961.388 35.661 965.081 35.661Z" fill="#FDCB6E"/>
<path d="M987.369 13.3729C991.061 13.3729 994.055 10.3793 994.055 6.68647C994.055 2.99363 991.061 0 987.369 0C983.676 0 980.682 2.99363 980.682 6.68647C980.682 10.3793 983.676 13.3729 987.369 13.3729Z" fill="#FDCB6E"/>
<path d="M1009.66 35.661C1013.35 35.661 1016.34 32.6674 1016.34 28.9746C1016.34 25.2817 1013.35 22.2881 1009.66 22.2881C1005.96 22.2881 1002.97 25.2817 1002.97 28.9746C1002.97 32.6674 1005.96 35.661 1009.66 35.661Z" fill="#FDCB6E"/>
<path d="M1031.95 13.3729C1035.64 13.3729 1038.63 10.3793 1038.63 6.68647C1038.63 2.99363 1035.64 0 1031.95 0C1028.25 0 1025.26 2.99363 1025.26 6.68647C1025.26 10.3793 1028.25 13.3729 1031.95 13.3729Z" fill="#FDCB6E"/>
<path d="M1054.23 35.661C1057.93 35.661 1060.92 32.6674 1060.92 28.9746C1060.92 25.2817 1057.93 22.2881 1054.23 22.2881C1050.54 22.2881 1047.55 25.2817 1047.55 28.9746C1047.55 32.6674 1050.54 35.661 1054.23 35.661Z" fill="#FDCB6E"/>
<path d="M719.91 57.9496C723.603 57.9496 726.597 54.956 726.597 51.2631C726.597 47.5703 723.603 44.5767 719.91 44.5767C716.217 44.5767 713.224 47.5703 713.224 51.2631C713.224 54.956 716.217 57.9496 719.91 57.9496Z" fill="#FDCB6E"/>
<path d="M742.198 80.2377C745.891 80.2377 748.885 77.2441 748.885 73.5512C748.885 69.8584 745.891 66.8647 742.198 66.8647C738.505 66.8647 735.512 69.8584 735.512 73.5512C735.512 77.2441 738.505 80.2377 742.198 80.2377Z" fill="#FDCB6E"/>
<path d="M764.486 57.9496C768.179 57.9496 771.173 54.956 771.173 51.2631C771.173 47.5703 768.179 44.5767 764.486 44.5767C760.793 44.5767 757.8 47.5703 757.8 51.2631C757.8 54.956 760.793 57.9496 764.486 57.9496Z" fill="#FDCB6E"/>
<path d="M786.774 80.2377C790.467 80.2377 793.461 77.2441 793.461 73.5512C793.461 69.8584 790.467 66.8647 786.774 66.8647C783.082 66.8647 780.088 69.8584 780.088 73.5512C780.088 77.2441 783.082 80.2377 786.774 80.2377Z" fill="#FDCB6E"/>
<path d="M809.063 57.9496C812.756 57.9496 815.749 54.956 815.749 51.2631C815.749 47.5703 812.756 44.5767 809.063 44.5767C805.37 44.5767 802.376 47.5703 802.376 51.2631C802.376 54.956 805.37 57.9496 809.063 57.9496Z" fill="#FDCB6E"/>
<path d="M831.351 80.2377C835.044 80.2377 838.037 77.2441 838.037 73.5512C838.037 69.8584 835.044 66.8647 831.351 66.8647C827.658 66.8647 824.665 69.8584 824.665 73.5512C824.665 77.2441 827.658 80.2377 831.351 80.2377Z" fill="#FDCB6E"/>
<path d="M853.639 57.9496C857.332 57.9496 860.326 54.956 860.326 51.2631C860.326 47.5703 857.332 44.5767 853.639 44.5767C849.946 44.5767 846.953 47.5703 846.953 51.2631C846.953 54.956 849.946 57.9496 853.639 57.9496Z" fill="#FDCB6E"/>
<path d="M875.928 80.2377C879.621 80.2377 882.614 77.2441 882.614 73.5512C882.614 69.8584 879.621 66.8647 875.928 66.8647C872.235 66.8647 869.241 69.8584 869.241 73.5512C869.241 77.2441 872.235 80.2377 875.928 80.2377Z" fill="#FDCB6E"/>
<path d="M898.216 57.9496C901.909 57.9496 904.902 54.956 904.902 51.2631C904.902 47.5703 901.909 44.5767 898.216 44.5767C894.523 44.5767 891.529 47.5703 891.529 51.2631C891.529 54.956 894.523 57.9496 898.216 57.9496Z" fill="#FDCB6E"/>
<path d="M920.504 80.2377C924.197 80.2377 927.19 77.2441 927.19 73.5512C927.19 69.8584 924.197 66.8647 920.504 66.8647C916.811 66.8647 913.817 69.8584 913.817 73.5512C913.817 77.2441 916.811 80.2377 920.504 80.2377Z" fill="#FDCB6E"/>
<path d="M942.792 57.9496C946.485 57.9496 949.478 54.956 949.478 51.2631C949.478 47.5703 946.485 44.5767 942.792 44.5767C939.099 44.5767 936.105 47.5703 936.105 51.2631C936.105 54.956 939.099 57.9496 942.792 57.9496Z" fill="#FDCB6E"/>
<path d="M965.081 80.2377C968.773 80.2377 971.767 77.2441 971.767 73.5512C971.767 69.8584 968.773 66.8647 965.081 66.8647C961.388 66.8647 958.394 69.8584 958.394 73.5512C958.394 77.2441 961.388 80.2377 965.081 80.2377Z" fill="#FDCB6E"/>
<path d="M987.369 57.9496C991.061 57.9496 994.055 54.956 994.055 51.2631C994.055 47.5703 991.061 44.5767 987.369 44.5767C983.676 44.5767 980.682 47.5703 980.682 51.2631C980.682 54.956 983.676 57.9496 987.369 57.9496Z" fill="#FDCB6E"/>
<path d="M1009.66 80.2377C1013.35 80.2377 1016.34 77.2441 1016.34 73.5512C1016.34 69.8584 1013.35 66.8647 1009.66 66.8647C1005.96 66.8647 1002.97 69.8584 1002.97 73.5512C1002.97 77.2441 1005.96 80.2377 1009.66 80.2377Z" fill="#FDCB6E"/>
<path d="M1031.95 57.9496C1035.64 57.9496 1038.63 54.956 1038.63 51.2631C1038.63 47.5703 1035.64 44.5767 1031.95 44.5767C1028.25 44.5767 1025.26 47.5703 1025.26 51.2631C1025.26 54.956 1028.25 57.9496 1031.95 57.9496Z" fill="#FDCB6E"/>
<path d="M1054.23 80.2377C1057.93 80.2377 1060.92 77.2441 1060.92 73.5512C1060.92 69.8584 1057.93 66.8647 1054.23 66.8647C1050.54 66.8647 1047.55 69.8584 1047.55 73.5512C1047.55 77.2441 1050.54 80.2377 1054.23 80.2377Z" fill="#FDCB6E"/>
<path d="M719.91 102.526C723.603 102.526 726.597 99.5321 726.597 95.8393C726.597 92.1465 723.603 89.1528 719.91 89.1528C716.217 89.1528 713.224 92.1465 713.224 95.8393C713.224 99.5321 716.217 102.526 719.91 102.526Z" fill="#FDCB6E"/>
<path d="M742.198 124.814C745.891 124.814 748.885 121.821 748.885 118.128C748.885 114.435 745.891 111.441 742.198 111.441C738.505 111.441 735.512 114.435 735.512 118.128C735.512 121.821 738.505 124.814 742.198 124.814Z" fill="#FDCB6E"/>
<path d="M764.486 102.526C768.179 102.526 771.173 99.5321 771.173 95.8393C771.173 92.1465 768.179 89.1528 764.486 89.1528C760.793 89.1528 757.8 92.1465 757.8 95.8393C757.8 99.5321 760.793 102.526 764.486 102.526Z" fill="#FDCB6E"/>
<path d="M786.774 124.814C790.467 124.814 793.461 121.821 793.461 118.128C793.461 114.435 790.467 111.441 786.774 111.441C783.082 111.441 780.088 114.435 780.088 118.128C780.088 121.821 783.082 124.814 786.774 124.814Z" fill="#FDCB6E"/>
<path d="M809.063 102.526C812.756 102.526 815.749 99.5321 815.749 95.8393C815.749 92.1465 812.756 89.1528 809.063 89.1528C805.37 89.1528 802.376 92.1465 802.376 95.8393C802.376 99.5321 805.37 102.526 809.063 102.526Z" fill="#FDCB6E"/>
<path d="M831.351 124.814C835.044 124.814 838.037 121.821 838.037 118.128C838.037 114.435 835.044 111.441 831.351 111.441C827.658 111.441 824.665 114.435 824.665 118.128C824.665 121.821 827.658 124.814 831.351 124.814Z" fill="#FDCB6E"/>
<path d="M853.639 102.526C857.332 102.526 860.326 99.5321 860.326 95.8393C860.326 92.1465 857.332 89.1528 853.639 89.1528C849.946 89.1528 846.953 92.1465 846.953 95.8393C846.953 99.5321 849.946 102.526 853.639 102.526Z" fill="#FDCB6E"/>
<path d="M875.928 124.814C879.621 124.814 882.614 121.821 882.614 118.128C882.614 114.435 879.621 111.441 875.928 111.441C872.235 111.441 869.241 114.435 869.241 118.128C869.241 121.821 872.235 124.814 875.928 124.814Z" fill="#FDCB6E"/>
<path d="M898.216 102.526C901.909 102.526 904.902 99.5321 904.902 95.8393C904.902 92.1465 901.909 89.1528 898.216 89.1528C894.523 89.1528 891.529 92.1465 891.529 95.8393C891.529 99.5321 894.523 102.526 898.216 102.526Z" fill="#FDCB6E"/>
<path d="M920.504 124.814C924.197 124.814 927.19 121.821 927.19 118.128C927.19 114.435 924.197 111.441 920.504 111.441C916.811 111.441 913.817 114.435 913.817 118.128C913.817 121.821 916.811 124.814 920.504 124.814Z" fill="#FDCB6E"/>
<path d="M942.792 102.526C946.485 102.526 949.478 99.5321 949.478 95.8393C949.478 92.1465 946.485 89.1528 942.792 89.1528C939.099 89.1528 936.105 92.1465 936.105 95.8393C936.105 99.5321 939.099 102.526 942.792 102.526Z" fill="#FDCB6E"/>
<path d="M965.081 124.814C968.773 124.814 971.767 121.821 971.767 118.128C971.767 114.435 968.773 111.441 965.081 111.441C961.388 111.441 958.394 114.435 958.394 118.128C958.394 121.821 961.388 124.814 965.081 124.814Z" fill="#FDCB6E"/>
<path d="M987.369 102.526C991.061 102.526 994.055 99.5321 994.055 95.8393C994.055 92.1465 991.061 89.1528 987.369 89.1528C983.676 89.1528 980.682 92.1465 980.682 95.8393C980.682 99.5321 983.676 102.526 987.369 102.526Z" fill="#FDCB6E"/>
<path d="M1009.66 124.814C1013.35 124.814 1016.34 121.821 1016.34 118.128C1016.34 114.435 1013.35 111.441 1009.66 111.441C1005.96 111.441 1002.97 114.435 1002.97 118.128C1002.97 121.821 1005.96 124.814 1009.66 124.814Z" fill="#FDCB6E"/>
<path d="M1031.95 102.526C1035.64 102.526 1038.63 99.5321 1038.63 95.8393C1038.63 92.1465 1035.64 89.1528 1031.95 89.1528C1028.25 89.1528 1025.26 92.1465 1025.26 95.8393C1025.26 99.5321 1028.25 102.526 1031.95 102.526Z" fill="#FDCB6E"/>
<path d="M1054.23 124.814C1057.93 124.814 1060.92 121.821 1060.92 118.128C1060.92 114.435 1057.93 111.441 1054.23 111.441C1050.54 111.441 1047.55 114.435 1047.55 118.128C1047.55 121.821 1050.54 124.814 1054.23 124.814Z" fill="#FDCB6E"/>
<path d="M719.91 147.102C723.603 147.102 726.597 144.109 726.597 140.416C726.597 136.723 723.603 133.729 719.91 133.729C716.217 133.729 713.224 136.723 713.224 140.416C713.224 144.109 716.217 147.102 719.91 147.102Z" fill="#FDCB6E"/>
<path d="M742.198 169.391C745.891 169.391 748.885 166.397 748.885 162.704C748.885 159.011 745.891 156.018 742.198 156.018C738.505 156.018 735.512 159.011 735.512 162.704C735.512 166.397 738.505 169.391 742.198 169.391Z" fill="#FDCB6E"/>
<path d="M764.486 147.102C768.179 147.102 771.173 144.109 771.173 140.416C771.173 136.723 768.179 133.729 764.486 133.729C760.793 133.729 757.8 136.723 757.8 140.416C757.8 144.109 760.793 147.102 764.486 147.102Z" fill="#FDCB6E"/>
<path d="M786.774 169.391C790.467 169.391 793.461 166.397 793.461 162.704C793.461 159.011 790.467 156.018 786.774 156.018C783.082 156.018 780.088 159.011 780.088 162.704C780.088 166.397 783.082 169.391 786.774 169.391Z" fill="#FDCB6E"/>
<path d="M809.063 147.102C812.756 147.102 815.749 144.109 815.749 140.416C815.749 136.723 812.756 133.729 809.063 133.729C805.37 133.729 802.376 136.723 802.376 140.416C802.376 144.109 805.37 147.102 809.063 147.102Z" fill="#FDCB6E"/>
<path d="M831.351 169.391C835.044 169.391 838.037 166.397 838.037 162.704C838.037 159.011 835.044 156.018 831.351 156.018C827.658 156.018 824.665 159.011 824.665 162.704C824.665 166.397 827.658 169.391 831.351 169.391Z" fill="#FDCB6E"/>
<path d="M853.639 147.102C857.332 147.102 860.326 144.109 860.326 140.416C860.326 136.723 857.332 133.729 853.639 133.729C849.946 133.729 846.953 136.723 846.953 140.416C846.953 144.109 849.946 147.102 853.639 147.102Z" fill="#FDCB6E"/>
<path d="M875.928 169.391C879.621 169.391 882.614 166.397 882.614 162.704C882.614 159.011 879.621 156.018 875.928 156.018C872.235 156.018 869.241 159.011 869.241 162.704C869.241 166.397 872.235 169.391 875.928 169.391Z" fill="#FDCB6E"/>
<path d="M898.216 147.102C901.909 147.102 904.902 144.109 904.902 140.416C904.902 136.723 901.909 133.729 898.216 133.729C894.523 133.729 891.529 136.723 891.529 140.416C891.529 144.109 894.523 147.102 898.216 147.102Z" fill="#FDCB6E"/>
<path d="M920.504 169.391C924.197 169.391 927.19 166.397 927.19 162.704C927.19 159.011 924.197 156.018 920.504 156.018C916.811 156.018 913.817 159.011 913.817 162.704C913.817 166.397 916.811 169.391 920.504 169.391Z" fill="#FDCB6E"/>
<path d="M942.792 147.102C946.485 147.102 949.478 144.109 949.478 140.416C949.478 136.723 946.485 133.729 942.792 133.729C939.099 133.729 936.105 136.723 936.105 140.416C936.105 144.109 939.099 147.102 942.792 147.102Z" fill="#FDCB6E"/>
<path d="M965.081 169.391C968.773 169.391 971.767 166.397 971.767 162.704C971.767 159.011 968.773 156.018 965.081 156.018C961.388 156.018 958.394 159.011 958.394 162.704C958.394 166.397 961.388 169.391 965.081 169.391Z" fill="#FDCB6E"/>
<path d="M987.369 147.102C991.061 147.102 994.055 144.109 994.055 140.416C994.055 136.723 991.061 133.729 987.369 133.729C983.676 133.729 980.682 136.723 980.682 140.416C980.682 144.109 983.676 147.102 987.369 147.102Z" fill="#FDCB6E"/>
<path d="M1009.66 169.391C1013.35 169.391 1016.34 166.397 1016.34 162.704C1016.34 159.011 1013.35 156.018 1009.66 156.018C1005.96 156.018 1002.97 159.011 1002.97 162.704C1002.97 166.397 1005.96 169.391 1009.66 169.391Z" fill="#FDCB6E"/>
<path d="M1031.95 147.102C1035.64 147.102 1038.63 144.109 1038.63 140.416C1038.63 136.723 1035.64 133.729 1031.95 133.729C1028.25 133.729 1025.26 136.723 1025.26 140.416C1025.26 144.109 1028.25 147.102 1031.95 147.102Z" fill="#FDCB6E"/>
<path d="M1054.23 169.391C1057.93 169.391 1060.92 166.397 1060.92 162.704C1060.92 159.011 1057.93 156.018 1054.23 156.018C1050.54 156.018 1047.55 159.011 1047.55 162.704C1047.55 166.397 1050.54 169.391 1054.23 169.391Z" fill="#FDCB6E"/>
<path d="M719.91 191.679C723.603 191.679 726.597 188.685 726.597 184.992C726.597 181.299 723.603 178.306 719.91 178.306C716.217 178.306 713.224 181.299 713.224 184.992C713.224 188.685 716.217 191.679 719.91 191.679Z" fill="#FDCB6E"/>
<path d="M742.198 213.967C745.891 213.967 748.885 210.974 748.885 207.281C748.885 203.588 745.891 200.594 742.198 200.594C738.505 200.594 735.512 203.588 735.512 207.281C735.512 210.974 738.505 213.967 742.198 213.967Z" fill="#FDCB6E"/>
<path d="M764.486 191.679C768.179 191.679 771.173 188.685 771.173 184.992C771.173 181.299 768.179 178.306 764.486 178.306C760.793 178.306 757.8 181.299 757.8 184.992C757.8 188.685 760.793 191.679 764.486 191.679Z" fill="#FDCB6E"/>
<path d="M786.774 213.967C790.467 213.967 793.461 210.974 793.461 207.281C793.461 203.588 790.467 200.594 786.774 200.594C783.082 200.594 780.088 203.588 780.088 207.281C780.088 210.974 783.082 213.967 786.774 213.967Z" fill="#FDCB6E"/>
<path d="M809.063 191.679C812.756 191.679 815.749 188.685 815.749 184.992C815.749 181.299 812.756 178.306 809.063 178.306C805.37 178.306 802.376 181.299 802.376 184.992C802.376 188.685 805.37 191.679 809.063 191.679Z" fill="#FDCB6E"/>
<path d="M831.351 213.967C835.044 213.967 838.037 210.974 838.037 207.281C838.037 203.588 835.044 200.594 831.351 200.594C827.658 200.594 824.665 203.588 824.665 207.281C824.665 210.974 827.658 213.967 831.351 213.967Z" fill="#FDCB6E"/>
<path d="M853.639 191.679C857.332 191.679 860.326 188.685 860.326 184.992C860.326 181.299 857.332 178.306 853.639 178.306C849.946 178.306 846.953 181.299 846.953 184.992C846.953 188.685 849.946 191.679 853.639 191.679Z" fill="#FDCB6E"/>
<path d="M875.928 213.967C879.621 213.967 882.614 210.974 882.614 207.281C882.614 203.588 879.621 200.594 875.928 200.594C872.235 200.594 869.241 203.588 869.241 207.281C869.241 210.974 872.235 213.967 875.928 213.967Z" fill="#FDCB6E"/>
<path d="M898.216 191.679C901.909 191.679 904.902 188.685 904.902 184.992C904.902 181.299 901.909 178.306 898.216 178.306C894.523 178.306 891.529 181.299 891.529 184.992C891.529 188.685 894.523 191.679 898.216 191.679Z" fill="#FDCB6E"/>
<path d="M920.504 213.967C924.197 213.967 927.19 210.974 927.19 207.281C927.19 203.588 924.197 200.594 920.504 200.594C916.811 200.594 913.817 203.588 913.817 207.281C913.817 210.974 916.811 213.967 920.504 213.967Z" fill="#FDCB6E"/>
<path d="M942.792 191.679C946.485 191.679 949.478 188.685 949.478 184.992C949.478 181.299 946.485 178.306 942.792 178.306C939.099 178.306 936.105 181.299 936.105 184.992C936.105 188.685 939.099 191.679 942.792 191.679Z" fill="#FDCB6E"/>
<path d="M965.081 213.967C968.773 213.967 971.767 210.974 971.767 207.281C971.767 203.588 968.773 200.594 965.081 200.594C961.388 200.594 958.394 203.588 958.394 207.281C958.394 210.974 961.388 213.967 965.081 213.967Z" fill="#FDCB6E"/>
<path d="M987.369 191.679C991.061 191.679 994.055 188.685 994.055 184.992C994.055 181.299 991.061 178.306 987.369 178.306C983.676 178.306 980.682 181.299 980.682 184.992C980.682 188.685 983.676 191.679 987.369 191.679Z" fill="#FDCB6E"/>
<path d="M1009.66 213.967C1013.35 213.967 1016.34 210.974 1016.34 207.281C1016.34 203.588 1013.35 200.594 1009.66 200.594C1005.96 200.594 1002.97 203.588 1002.97 207.281C1002.97 210.974 1005.96 213.967 1009.66 213.967Z" fill="#FDCB6E"/>
<path d="M1031.95 191.679C1035.64 191.679 1038.63 188.685 1038.63 184.992C1038.63 181.299 1035.64 178.306 1031.95 178.306C1028.25 178.306 1025.26 181.299 1025.26 184.992C1025.26 188.685 1028.25 191.679 1031.95 191.679Z" fill="#FDCB6E"/>
<path d="M1054.23 213.967C1057.93 213.967 1060.92 210.974 1060.92 207.281C1060.92 203.588 1057.93 200.594 1054.23 200.594C1050.54 200.594 1047.55 203.588 1047.55 207.281C1047.55 210.974 1050.54 213.967 1054.23 213.967Z" fill="#FDCB6E"/>
<path d="M719.91 236.255C723.603 236.255 726.597 233.262 726.597 229.569C726.597 225.876 723.603 222.882 719.91 222.882C716.217 222.882 713.224 225.876 713.224 229.569C713.224 233.262 716.217 236.255 719.91 236.255Z" fill="#FDCB6E"/>
<path d="M742.198 258.543C745.891 258.543 748.885 255.55 748.885 251.857C748.885 248.164 745.891 245.17 742.198 245.17C738.505 245.17 735.512 248.164 735.512 251.857C735.512 255.55 738.505 258.543 742.198 258.543Z" fill="#FDCB6E"/>
<path d="M764.486 236.255C768.179 236.255 771.173 233.262 771.173 229.569C771.173 225.876 768.179 222.882 764.486 222.882C760.793 222.882 757.8 225.876 757.8 229.569C757.8 233.262 760.793 236.255 764.486 236.255Z" fill="#FDCB6E"/>
<path d="M786.774 258.543C790.467 258.543 793.461 255.55 793.461 251.857C793.461 248.164 790.467 245.17 786.774 245.17C783.082 245.17 780.088 248.164 780.088 251.857C780.088 255.55 783.082 258.543 786.774 258.543Z" fill="#FDCB6E"/>
<path d="M809.063 236.255C812.756 236.255 815.749 233.262 815.749 229.569C815.749 225.876 812.756 222.882 809.063 222.882C805.37 222.882 802.376 225.876 802.376 229.569C802.376 233.262 805.37 236.255 809.063 236.255Z" fill="#FDCB6E"/>
<path d="M831.351 258.543C835.044 258.543 838.037 255.55 838.037 251.857C838.037 248.164 835.044 245.17 831.351 245.17C827.658 245.17 824.665 248.164 824.665 251.857C824.665 255.55 827.658 258.543 831.351 258.543Z" fill="#FDCB6E"/>
<path d="M853.639 236.255C857.332 236.255 860.326 233.262 860.326 229.569C860.326 225.876 857.332 222.882 853.639 222.882C849.946 222.882 846.953 225.876 846.953 229.569C846.953 233.262 849.946 236.255 853.639 236.255Z" fill="#FDCB6E"/>
<path d="M875.928 258.543C879.621 258.543 882.614 255.55 882.614 251.857C882.614 248.164 879.621 245.17 875.928 245.17C872.235 245.17 869.241 248.164 869.241 251.857C869.241 255.55 872.235 258.543 875.928 258.543Z" fill="#FDCB6E"/>
<path d="M898.216 236.255C901.909 236.255 904.902 233.262 904.902 229.569C904.902 225.876 901.909 222.882 898.216 222.882C894.523 222.882 891.529 225.876 891.529 229.569C891.529 233.262 894.523 236.255 898.216 236.255Z" fill="#FDCB6E"/>
<path d="M920.504 258.543C924.197 258.543 927.19 255.55 927.19 251.857C927.19 248.164 924.197 245.17 920.504 245.17C916.811 245.17 913.817 248.164 913.817 251.857C913.817 255.55 916.811 258.543 920.504 258.543Z" fill="#FDCB6E"/>
<path d="M942.792 236.255C946.485 236.255 949.478 233.262 949.478 229.569C949.478 225.876 946.485 222.882 942.792 222.882C939.099 222.882 936.105 225.876 936.105 229.569C936.105 233.262 939.099 236.255 942.792 236.255Z" fill="#FDCB6E"/>
<path d="M965.081 258.543C968.773 258.543 971.767 255.55 971.767 251.857C971.767 248.164 968.773 245.17 965.081 245.17C961.388 245.17 958.394 248.164 958.394 251.857C958.394 255.55 961.388 258.543 965.081 258.543Z" fill="#FDCB6E"/>
<path d="M987.369 236.255C991.061 236.255 994.055 233.262 994.055 229.569C994.055 225.876 991.061 222.882 987.369 222.882C983.676 222.882 980.682 225.876 980.682 229.569C980.682 233.262 983.676 236.255 987.369 236.255Z" fill="#FDCB6E"/>
<path d="M1009.66 258.543C1013.35 258.543 1016.34 255.55 1016.34 251.857C1016.34 248.164 1013.35 245.17 1009.66 245.17C1005.96 245.17 1002.97 248.164 1002.97 251.857C1002.97 255.55 1005.96 258.543 1009.66 258.543Z" fill="#FDCB6E"/>
<path d="M1031.95 236.255C1035.64 236.255 1038.63 233.262 1038.63 229.569C1038.63 225.876 1035.64 222.882 1031.95 222.882C1028.25 222.882 1025.26 225.876 1025.26 229.569C1025.26 233.262 1028.25 236.255 1031.95 236.255Z" fill="#FDCB6E"/>
<path d="M1054.23 258.543C1057.93 258.543 1060.92 255.55 1060.92 251.857C1060.92 248.164 1057.93 245.17 1054.23 245.17C1050.54 245.17 1047.55 248.164 1047.55 251.857C1047.55 255.55 1050.54 258.543 1054.23 258.543Z" fill="#FDCB6E"/>
<path d="M719.91 280.832C723.603 280.832 726.597 277.838 726.597 274.145C726.597 270.453 723.603 267.459 719.91 267.459C716.217 267.459 713.224 270.453 713.224 274.145C713.224 277.838 716.217 280.832 719.91 280.832Z" fill="#FDCB6E"/>
<path d="M742.198 303.12C745.891 303.12 748.885 300.126 748.885 296.434C748.885 292.741 745.891 289.747 742.198 289.747C738.505 289.747 735.512 292.741 735.512 296.434C735.512 300.126 738.505 303.12 742.198 303.12Z" fill="#FDCB6E"/>
<path d="M764.486 280.832C768.179 280.832 771.173 277.838 771.173 274.145C771.173 270.453 768.179 267.459 764.486 267.459C760.793 267.459 757.8 270.453 757.8 274.145C757.8 277.838 760.793 280.832 764.486 280.832Z" fill="#FDCB6E"/>
<path d="M786.774 303.12C790.467 303.12 793.461 300.126 793.461 296.434C793.461 292.741 790.467 289.747 786.774 289.747C783.082 289.747 780.088 292.741 780.088 296.434C780.088 300.126 783.082 303.12 786.774 303.12Z" fill="#FDCB6E"/>
<path d="M809.063 280.832C812.756 280.832 815.749 277.838 815.749 274.145C815.749 270.453 812.756 267.459 809.063 267.459C805.37 267.459 802.376 270.453 802.376 274.145C802.376 277.838 805.37 280.832 809.063 280.832Z" fill="#FDCB6E"/>
<path d="M831.351 303.12C835.044 303.12 838.037 300.126 838.037 296.434C838.037 292.741 835.044 289.747 831.351 289.747C827.658 289.747 824.665 292.741 824.665 296.434C824.665 300.126 827.658 303.12 831.351 303.12Z" fill="#FDCB6E"/>
<path d="M853.639 280.832C857.332 280.832 860.326 277.838 860.326 274.145C860.326 270.453 857.332 267.459 853.639 267.459C849.946 267.459 846.953 270.453 846.953 274.145C846.953 277.838 849.946 280.832 853.639 280.832Z" fill="#FDCB6E"/>
<path d="M875.928 303.12C879.621 303.12 882.614 300.126 882.614 296.434C882.614 292.741 879.621 289.747 875.928 289.747C872.235 289.747 869.241 292.741 869.241 296.434C869.241 300.126 872.235 303.12 875.928 303.12Z" fill="#FDCB6E"/>
<path d="M898.216 280.832C901.909 280.832 904.902 277.838 904.902 274.145C904.902 270.453 901.909 267.459 898.216 267.459C894.523 267.459 891.529 270.453 891.529 274.145C891.529 277.838 894.523 280.832 898.216 280.832Z" fill="#FDCB6E"/>
<path d="M920.504 303.12C924.197 303.12 927.19 300.126 927.19 296.434C927.19 292.741 924.197 289.747 920.504 289.747C916.811 289.747 913.817 292.741 913.817 296.434C913.817 300.126 916.811 303.12 920.504 303.12Z" fill="#FDCB6E"/>
<path d="M942.792 280.832C946.485 280.832 949.478 277.838 949.478 274.145C949.478 270.453 946.485 267.459 942.792 267.459C939.099 267.459 936.105 270.453 936.105 274.145C936.105 277.838 939.099 280.832 942.792 280.832Z" fill="#FDCB6E"/>
<path d="M965.081 303.12C968.773 303.12 971.767 300.126 971.767 296.434C971.767 292.741 968.773 289.747 965.081 289.747C961.388 289.747 958.394 292.741 958.394 296.434C958.394 300.126 961.388 303.12 965.081 303.12Z" fill="#FDCB6E"/>
<path d="M987.369 280.832C991.061 280.832 994.055 277.838 994.055 274.145C994.055 270.453 991.061 267.459 987.369 267.459C983.676 267.459 980.682 270.453 980.682 274.145C980.682 277.838 983.676 280.832 987.369 280.832Z" fill="#FDCB6E"/>
<path d="M1009.66 303.12C1013.35 303.12 1016.34 300.126 1016.34 296.434C1016.34 292.741 1013.35 289.747 1009.66 289.747C1005.96 289.747 1002.97 292.741 1002.97 296.434C1002.97 300.126 1005.96 303.12 1009.66 303.12Z" fill="#FDCB6E"/>
<path d="M1031.95 280.832C1035.64 280.832 1038.63 277.838 1038.63 274.145C1038.63 270.453 1035.64 267.459 1031.95 267.459C1028.25 267.459 1025.26 270.453 1025.26 274.145C1025.26 277.838 1028.25 280.832 1031.95 280.832Z" fill="#FDCB6E"/>
<path d="M1054.23 303.12C1057.93 303.12 1060.92 300.126 1060.92 296.434C1060.92 292.741 1057.93 289.747 1054.23 289.747C1050.54 289.747 1047.55 292.741 1047.55 296.434C1047.55 300.126 1050.54 303.12 1054.23 303.12Z" fill="#FDCB6E"/>
<path d="M1076.52 13.3729C1080.21 13.3729 1083.21 10.3793 1083.21 6.68647C1083.21 2.99363 1080.21 0 1076.52 0C1072.83 0 1069.83 2.99363 1069.83 6.68647C1069.83 10.3793 1072.83 13.3729 1076.52 13.3729Z" fill="#FDCB6E"/>
<path d="M1098.81 35.661C1102.5 35.661 1105.5 32.6674 1105.5 28.9746C1105.5 25.2817 1102.5 22.2881 1098.81 22.2881C1095.12 22.2881 1092.12 25.2817 1092.12 28.9746C1092.12 32.6674 1095.12 35.661 1098.81 35.661Z" fill="#FDCB6E"/>
<path d="M1121.1 13.3729C1124.79 13.3729 1127.78 10.3793 1127.78 6.68647C1127.78 2.99363 1124.79 0 1121.1 0C1117.41 0 1114.41 2.99363 1114.41 6.68647C1114.41 10.3793 1117.41 13.3729 1121.1 13.3729Z" fill="#FDCB6E"/>
<path d="M1143.39 35.661C1147.08 35.661 1150.07 32.6674 1150.07 28.9746C1150.07 25.2817 1147.08 22.2881 1143.39 22.2881C1139.69 22.2881 1136.7 25.2817 1136.7 28.9746C1136.7 32.6674 1139.69 35.661 1143.39 35.661Z" fill="#FDCB6E"/>
<path d="M1165.67 13.3729C1169.37 13.3729 1172.36 10.3793 1172.36 6.68647C1172.36 2.99363 1169.37 0 1165.67 0C1161.98 0 1158.99 2.99363 1158.99 6.68647C1158.99 10.3793 1161.98 13.3729 1165.67 13.3729Z" fill="#FDCB6E"/>
<path d="M1187.96 35.661C1191.66 35.661 1194.65 32.6674 1194.65 28.9746C1194.65 25.2817 1191.66 22.2881 1187.96 22.2881C1184.27 22.2881 1181.28 25.2817 1181.28 28.9746C1181.28 32.6674 1184.27 35.661 1187.96 35.661Z" fill="#FDCB6E"/>
<path d="M1210.25 13.3729C1213.94 13.3729 1216.94 10.3793 1216.94 6.68647C1216.94 2.99363 1213.94 0 1210.25 0C1206.56 0 1203.56 2.99363 1203.56 6.68647C1203.56 10.3793 1206.56 13.3729 1210.25 13.3729Z" fill="#FDCB6E"/>
<path d="M1232.54 35.661C1236.23 35.661 1239.23 32.6674 1239.23 28.9746C1239.23 25.2817 1236.23 22.2881 1232.54 22.2881C1228.85 22.2881 1225.85 25.2817 1225.85 28.9746C1225.85 32.6674 1228.85 35.661 1232.54 35.661Z" fill="#FDCB6E"/>
<path d="M1254.83 13.3729C1258.52 13.3729 1261.51 10.3793 1261.51 6.68647C1261.51 2.99363 1258.52 0 1254.83 0C1251.13 0 1248.14 2.99363 1248.14 6.68647C1248.14 10.3793 1251.13 13.3729 1254.83 13.3729Z" fill="#FDCB6E"/>
<path d="M1277.12 35.661C1280.81 35.661 1283.8 32.6674 1283.8 28.9746C1283.8 25.2817 1280.81 22.2881 1277.12 22.2881C1273.42 22.2881 1270.43 25.2817 1270.43 28.9746C1270.43 32.6674 1273.42 35.661 1277.12 35.661Z" fill="#FDCB6E"/>
<path d="M1299.4 13.3729C1303.1 13.3729 1306.09 10.3793 1306.09 6.68647C1306.09 2.99363 1303.1 0 1299.4 0C1295.71 0 1292.72 2.99363 1292.72 6.68647C1292.72 10.3793 1295.71 13.3729 1299.4 13.3729Z" fill="#FDCB6E"/>
<path d="M1321.69 35.661C1325.39 35.661 1328.38 32.6674 1328.38 28.9746C1328.38 25.2817 1325.39 22.2881 1321.69 22.2881C1318 22.2881 1315.01 25.2817 1315.01 28.9746C1315.01 32.6674 1318 35.661 1321.69 35.661Z" fill="#FDCB6E"/>
<path d="M1343.98 13.3729C1347.67 13.3729 1350.67 10.3793 1350.67 6.68647C1350.67 2.99363 1347.67 0 1343.98 0C1340.29 0 1337.29 2.99363 1337.29 6.68647C1337.29 10.3793 1340.29 13.3729 1343.98 13.3729Z" fill="#FDCB6E"/>
<path d="M1366.27 35.661C1369.96 35.661 1372.95 32.6674 1372.95 28.9746C1372.95 25.2817 1369.96 22.2881 1366.27 22.2881C1362.58 22.2881 1359.58 25.2817 1359.58 28.9746C1359.58 32.6674 1362.58 35.661 1366.27 35.661Z" fill="#FDCB6E"/>
<path d="M1388.56 13.3729C1392.25 13.3729 1395.24 10.3793 1395.24 6.68647C1395.24 2.99363 1392.25 0 1388.56 0C1384.86 0 1381.87 2.99363 1381.87 6.68647C1381.87 10.3793 1384.86 13.3729 1388.56 13.3729Z" fill="#FDCB6E"/>
<path d="M1410.85 35.661C1414.54 35.661 1417.53 32.6674 1417.53 28.9746C1417.53 25.2817 1414.54 22.2881 1410.85 22.2881C1407.15 22.2881 1404.16 25.2817 1404.16 28.9746C1404.16 32.6674 1407.15 35.661 1410.85 35.661Z" fill="#FDCB6E"/>
<path d="M1076.52 57.9496C1080.21 57.9496 1083.21 54.956 1083.21 51.2631C1083.21 47.5703 1080.21 44.5767 1076.52 44.5767C1072.83 44.5767 1069.83 47.5703 1069.83 51.2631C1069.83 54.956 1072.83 57.9496 1076.52 57.9496Z" fill="#FDCB6E"/>
<path d="M1098.81 80.2377C1102.5 80.2377 1105.5 77.2441 1105.5 73.5512C1105.5 69.8584 1102.5 66.8647 1098.81 66.8647C1095.12 66.8647 1092.12 69.8584 1092.12 73.5512C1092.12 77.2441 1095.12 80.2377 1098.81 80.2377Z" fill="#FDCB6E"/>
<path d="M1121.1 57.9496C1124.79 57.9496 1127.78 54.956 1127.78 51.2631C1127.78 47.5703 1124.79 44.5767 1121.1 44.5767C1117.41 44.5767 1114.41 47.5703 1114.41 51.2631C1114.41 54.956 1117.41 57.9496 1121.1 57.9496Z" fill="#FDCB6E"/>
<path d="M1143.39 80.2377C1147.08 80.2377 1150.07 77.2441 1150.07 73.5512C1150.07 69.8584 1147.08 66.8647 1143.39 66.8647C1139.69 66.8647 1136.7 69.8584 1136.7 73.5512C1136.7 77.2441 1139.69 80.2377 1143.39 80.2377Z" fill="#FDCB6E"/>
<path d="M1165.67 57.9496C1169.37 57.9496 1172.36 54.956 1172.36 51.2631C1172.36 47.5703 1169.37 44.5767 1165.67 44.5767C1161.98 44.5767 1158.99 47.5703 1158.99 51.2631C1158.99 54.956 1161.98 57.9496 1165.67 57.9496Z" fill="#FDCB6E"/>
<path d="M1187.96 80.2377C1191.66 80.2377 1194.65 77.2441 1194.65 73.5512C1194.65 69.8584 1191.66 66.8647 1187.96 66.8647C1184.27 66.8647 1181.28 69.8584 1181.28 73.5512C1181.28 77.2441 1184.27 80.2377 1187.96 80.2377Z" fill="#FDCB6E"/>
<path d="M1210.25 57.9496C1213.94 57.9496 1216.94 54.956 1216.94 51.2631C1216.94 47.5703 1213.94 44.5767 1210.25 44.5767C1206.56 44.5767 1203.56 47.5703 1203.56 51.2631C1203.56 54.956 1206.56 57.9496 1210.25 57.9496Z" fill="#FDCB6E"/>
<path d="M1232.54 80.2377C1236.23 80.2377 1239.23 77.2441 1239.23 73.5512C1239.23 69.8584 1236.23 66.8647 1232.54 66.8647C1228.85 66.8647 1225.85 69.8584 1225.85 73.5512C1225.85 77.2441 1228.85 80.2377 1232.54 80.2377Z" fill="#FDCB6E"/>
<path d="M1254.83 57.9496C1258.52 57.9496 1261.51 54.956 1261.51 51.2631C1261.51 47.5703 1258.52 44.5767 1254.83 44.5767C1251.13 44.5767 1248.14 47.5703 1248.14 51.2631C1248.14 54.956 1251.13 57.9496 1254.83 57.9496Z" fill="#FDCB6E"/>
<path d="M1277.12 80.2377C1280.81 80.2377 1283.8 77.2441 1283.8 73.5512C1283.8 69.8584 1280.81 66.8647 1277.12 66.8647C1273.42 66.8647 1270.43 69.8584 1270.43 73.5512C1270.43 77.2441 1273.42 80.2377 1277.12 80.2377Z" fill="#FDCB6E"/>
<path d="M1299.4 57.9496C1303.1 57.9496 1306.09 54.956 1306.09 51.2631C1306.09 47.5703 1303.1 44.5767 1299.4 44.5767C1295.71 44.5767 1292.72 47.5703 1292.72 51.2631C1292.72 54.956 1295.71 57.9496 1299.4 57.9496Z" fill="#FDCB6E"/>
<path d="M1321.69 80.2377C1325.39 80.2377 1328.38 77.2441 1328.38 73.5512C1328.38 69.8584 1325.39 66.8647 1321.69 66.8647C1318 66.8647 1315.01 69.8584 1315.01 73.5512C1315.01 77.2441 1318 80.2377 1321.69 80.2377Z" fill="#FDCB6E"/>
<path d="M1343.98 57.9496C1347.67 57.9496 1350.67 54.956 1350.67 51.2631C1350.67 47.5703 1347.67 44.5767 1343.98 44.5767C1340.29 44.5767 1337.29 47.5703 1337.29 51.2631C1337.29 54.956 1340.29 57.9496 1343.98 57.9496Z" fill="#FDCB6E"/>
<path d="M1366.27 80.2377C1369.96 80.2377 1372.95 77.2441 1372.95 73.5512C1372.95 69.8584 1369.96 66.8647 1366.27 66.8647C1362.58 66.8647 1359.58 69.8584 1359.58 73.5512C1359.58 77.2441 1362.58 80.2377 1366.27 80.2377Z" fill="#FDCB6E"/>
<path d="M1388.56 57.9496C1392.25 57.9496 1395.24 54.956 1395.24 51.2631C1395.24 47.5703 1392.25 44.5767 1388.56 44.5767C1384.86 44.5767 1381.87 47.5703 1381.87 51.2631C1381.87 54.956 1384.86 57.9496 1388.56 57.9496Z" fill="#FDCB6E"/>
<path d="M1410.85 80.2377C1414.54 80.2377 1417.53 77.2441 1417.53 73.5512C1417.53 69.8584 1414.54 66.8647 1410.85 66.8647C1407.15 66.8647 1404.16 69.8584 1404.16 73.5512C1404.16 77.2441 1407.15 80.2377 1410.85 80.2377Z" fill="#FDCB6E"/>
<path d="M1076.52 102.526C1080.21 102.526 1083.21 99.5321 1083.21 95.8393C1083.21 92.1465 1080.21 89.1528 1076.52 89.1528C1072.83 89.1528 1069.83 92.1465 1069.83 95.8393C1069.83 99.5321 1072.83 102.526 1076.52 102.526Z" fill="#FDCB6E"/>
<path d="M1098.81 124.814C1102.5 124.814 1105.5 121.821 1105.5 118.128C1105.5 114.435 1102.5 111.441 1098.81 111.441C1095.12 111.441 1092.12 114.435 1092.12 118.128C1092.12 121.821 1095.12 124.814 1098.81 124.814Z" fill="#FDCB6E"/>
<path d="M1121.1 102.526C1124.79 102.526 1127.78 99.5321 1127.78 95.8393C1127.78 92.1465 1124.79 89.1528 1121.1 89.1528C1117.41 89.1528 1114.41 92.1465 1114.41 95.8393C1114.41 99.5321 1117.41 102.526 1121.1 102.526Z" fill="#FDCB6E"/>
<path d="M1143.39 124.814C1147.08 124.814 1150.07 121.821 1150.07 118.128C1150.07 114.435 1147.08 111.441 1143.39 111.441C1139.69 111.441 1136.7 114.435 1136.7 118.128C1136.7 121.821 1139.69 124.814 1143.39 124.814Z" fill="#FDCB6E"/>
<path d="M1165.67 102.526C1169.37 102.526 1172.36 99.5321 1172.36 95.8393C1172.36 92.1465 1169.37 89.1528 1165.67 89.1528C1161.98 89.1528 1158.99 92.1465 1158.99 95.8393C1158.99 99.5321 1161.98 102.526 1165.67 102.526Z" fill="#FDCB6E"/>
<path d="M1187.96 124.814C1191.66 124.814 1194.65 121.821 1194.65 118.128C1194.65 114.435 1191.66 111.441 1187.96 111.441C1184.27 111.441 1181.28 114.435 1181.28 118.128C1181.28 121.821 1184.27 124.814 1187.96 124.814Z" fill="#FDCB6E"/>
<path d="M1210.25 102.526C1213.94 102.526 1216.94 99.5321 1216.94 95.8393C1216.94 92.1465 1213.94 89.1528 1210.25 89.1528C1206.56 89.1528 1203.56 92.1465 1203.56 95.8393C1203.56 99.5321 1206.56 102.526 1210.25 102.526Z" fill="#FDCB6E"/>
<path d="M1232.54 124.814C1236.23 124.814 1239.23 121.821 1239.23 118.128C1239.23 114.435 1236.23 111.441 1232.54 111.441C1228.85 111.441 1225.85 114.435 1225.85 118.128C1225.85 121.821 1228.85 124.814 1232.54 124.814Z" fill="#FDCB6E"/>
<path d="M1254.83 102.526C1258.52 102.526 1261.51 99.5321 1261.51 95.8393C1261.51 92.1465 1258.52 89.1528 1254.83 89.1528C1251.13 89.1528 1248.14 92.1465 1248.14 95.8393C1248.14 99.5321 1251.13 102.526 1254.83 102.526Z" fill="#FDCB6E"/>
<path d="M1277.12 124.814C1280.81 124.814 1283.8 121.821 1283.8 118.128C1283.8 114.435 1280.81 111.441 1277.12 111.441C1273.42 111.441 1270.43 114.435 1270.43 118.128C1270.43 121.821 1273.42 124.814 1277.12 124.814Z" fill="#FDCB6E"/>
<path d="M1299.4 102.526C1303.1 102.526 1306.09 99.5321 1306.09 95.8393C1306.09 92.1465 1303.1 89.1528 1299.4 89.1528C1295.71 89.1528 1292.72 92.1465 1292.72 95.8393C1292.72 99.5321 1295.71 102.526 1299.4 102.526Z" fill="#FDCB6E"/>
<path d="M1321.69 124.814C1325.39 124.814 1328.38 121.821 1328.38 118.128C1328.38 114.435 1325.39 111.441 1321.69 111.441C1318 111.441 1315.01 114.435 1315.01 118.128C1315.01 121.821 1318 124.814 1321.69 124.814Z" fill="#FDCB6E"/>
<path d="M1343.98 102.526C1347.67 102.526 1350.67 99.5321 1350.67 95.8393C1350.67 92.1465 1347.67 89.1528 1343.98 89.1528C1340.29 89.1528 1337.29 92.1465 1337.29 95.8393C1337.29 99.5321 1340.29 102.526 1343.98 102.526Z" fill="#FDCB6E"/>
<path d="M1366.27 124.814C1369.96 124.814 1372.95 121.821 1372.95 118.128C1372.95 114.435 1369.96 111.441 1366.27 111.441C1362.58 111.441 1359.58 114.435 1359.58 118.128C1359.58 121.821 1362.58 124.814 1366.27 124.814Z" fill="#FDCB6E"/>
<path d="M1388.56 102.526C1392.25 102.526 1395.24 99.5321 1395.24 95.8393C1395.24 92.1465 1392.25 89.1528 1388.56 89.1528C1384.86 89.1528 1381.87 92.1465 1381.87 95.8393C1381.87 99.5321 1384.86 102.526 1388.56 102.526Z" fill="#FDCB6E"/>
<path d="M1410.85 124.814C1414.54 124.814 1417.53 121.821 1417.53 118.128C1417.53 114.435 1414.54 111.441 1410.85 111.441C1407.15 111.441 1404.16 114.435 1404.16 118.128C1404.16 121.821 1407.15 124.814 1410.85 124.814Z" fill="#FDCB6E"/>
<path d="M1076.52 147.102C1080.21 147.102 1083.21 144.109 1083.21 140.416C1083.21 136.723 1080.21 133.729 1076.52 133.729C1072.83 133.729 1069.83 136.723 1069.83 140.416C1069.83 144.109 1072.83 147.102 1076.52 147.102Z" fill="#FDCB6E"/>
<path d="M1098.81 169.391C1102.5 169.391 1105.5 166.397 1105.5 162.704C1105.5 159.011 1102.5 156.018 1098.81 156.018C1095.12 156.018 1092.12 159.011 1092.12 162.704C1092.12 166.397 1095.12 169.391 1098.81 169.391Z" fill="#FDCB6E"/>
<path d="M1121.1 147.102C1124.79 147.102 1127.78 144.109 1127.78 140.416C1127.78 136.723 1124.79 133.729 1121.1 133.729C1117.41 133.729 1114.41 136.723 1114.41 140.416C1114.41 144.109 1117.41 147.102 1121.1 147.102Z" fill="#FDCB6E"/>
<path d="M1143.39 169.391C1147.08 169.391 1150.07 166.397 1150.07 162.704C1150.07 159.011 1147.08 156.018 1143.39 156.018C1139.69 156.018 1136.7 159.011 1136.7 162.704C1136.7 166.397 1139.69 169.391 1143.39 169.391Z" fill="#FDCB6E"/>
<path d="M1165.67 147.102C1169.37 147.102 1172.36 144.109 1172.36 140.416C1172.36 136.723 1169.37 133.729 1165.67 133.729C1161.98 133.729 1158.99 136.723 1158.99 140.416C1158.99 144.109 1161.98 147.102 1165.67 147.102Z" fill="#FDCB6E"/>
<path d="M1187.96 169.391C1191.66 169.391 1194.65 166.397 1194.65 162.704C1194.65 159.011 1191.66 156.018 1187.96 156.018C1184.27 156.018 1181.28 159.011 1181.28 162.704C1181.28 166.397 1184.27 169.391 1187.96 169.391Z" fill="#FDCB6E"/>
<path d="M1210.25 147.102C1213.94 147.102 1216.94 144.109 1216.94 140.416C1216.94 136.723 1213.94 133.729 1210.25 133.729C1206.56 133.729 1203.56 136.723 1203.56 140.416C1203.56 144.109 1206.56 147.102 1210.25 147.102Z" fill="#FDCB6E"/>
<path d="M1232.54 169.391C1236.23 169.391 1239.23 166.397 1239.23 162.704C1239.23 159.011 1236.23 156.018 1232.54 156.018C1228.85 156.018 1225.85 159.011 1225.85 162.704C1225.85 166.397 1228.85 169.391 1232.54 169.391Z" fill="#FDCB6E"/>
<path d="M1254.83 147.102C1258.52 147.102 1261.51 144.109 1261.51 140.416C1261.51 136.723 1258.52 133.729 1254.83 133.729C1251.13 133.729 1248.14 136.723 1248.14 140.416C1248.14 144.109 1251.13 147.102 1254.83 147.102Z" fill="#FDCB6E"/>
<path d="M1277.12 169.391C1280.81 169.391 1283.8 166.397 1283.8 162.704C1283.8 159.011 1280.81 156.018 1277.12 156.018C1273.42 156.018 1270.43 159.011 1270.43 162.704C1270.43 166.397 1273.42 169.391 1277.12 169.391Z" fill="#FDCB6E"/>
<path d="M1299.4 147.102C1303.1 147.102 1306.09 144.109 1306.09 140.416C1306.09 136.723 1303.1 133.729 1299.4 133.729C1295.71 133.729 1292.72 136.723 1292.72 140.416C1292.72 144.109 1295.71 147.102 1299.4 147.102Z" fill="#FDCB6E"/>
<path d="M1321.69 169.391C1325.39 169.391 1328.38 166.397 1328.38 162.704C1328.38 159.011 1325.39 156.018 1321.69 156.018C1318 156.018 1315.01 159.011 1315.01 162.704C1315.01 166.397 1318 169.391 1321.69 169.391Z" fill="#FDCB6E"/>
<path d="M1343.98 147.102C1347.67 147.102 1350.67 144.109 1350.67 140.416C1350.67 136.723 1347.67 133.729 1343.98 133.729C1340.29 133.729 1337.29 136.723 1337.29 140.416C1337.29 144.109 1340.29 147.102 1343.98 147.102Z" fill="#FDCB6E"/>
<path d="M1366.27 169.391C1369.96 169.391 1372.95 166.397 1372.95 162.704C1372.95 159.011 1369.96 156.018 1366.27 156.018C1362.58 156.018 1359.58 159.011 1359.58 162.704C1359.58 166.397 1362.58 169.391 1366.27 169.391Z" fill="#FDCB6E"/>
<path d="M1388.56 147.102C1392.25 147.102 1395.24 144.109 1395.24 140.416C1395.24 136.723 1392.25 133.729 1388.56 133.729C1384.86 133.729 1381.87 136.723 1381.87 140.416C1381.87 144.109 1384.86 147.102 1388.56 147.102Z" fill="#FDCB6E"/>
<path d="M1410.85 169.391C1414.54 169.391 1417.53 166.397 1417.53 162.704C1417.53 159.011 1414.54 156.018 1410.85 156.018C1407.15 156.018 1404.16 159.011 1404.16 162.704C1404.16 166.397 1407.15 169.391 1410.85 169.391Z" fill="#FDCB6E"/>
<path d="M1076.52 191.679C1080.21 191.679 1083.21 188.685 1083.21 184.992C1083.21 181.299 1080.21 178.306 1076.52 178.306C1072.83 178.306 1069.83 181.299 1069.83 184.992C1069.83 188.685 1072.83 191.679 1076.52 191.679Z" fill="#FDCB6E"/>
<path d="M1098.81 213.967C1102.5 213.967 1105.5 210.974 1105.5 207.281C1105.5 203.588 1102.5 200.594 1098.81 200.594C1095.12 200.594 1092.12 203.588 1092.12 207.281C1092.12 210.974 1095.12 213.967 1098.81 213.967Z" fill="#FDCB6E"/>
<path d="M1121.1 191.679C1124.79 191.679 1127.78 188.685 1127.78 184.992C1127.78 181.299 1124.79 178.306 1121.1 178.306C1117.41 178.306 1114.41 181.299 1114.41 184.992C1114.41 188.685 1117.41 191.679 1121.1 191.679Z" fill="#FDCB6E"/>
<path d="M1143.39 213.967C1147.08 213.967 1150.07 210.974 1150.07 207.281C1150.07 203.588 1147.08 200.594 1143.39 200.594C1139.69 200.594 1136.7 203.588 1136.7 207.281C1136.7 210.974 1139.69 213.967 1143.39 213.967Z" fill="#FDCB6E"/>
<path d="M1165.67 191.679C1169.37 191.679 1172.36 188.685 1172.36 184.992C1172.36 181.299 1169.37 178.306 1165.67 178.306C1161.98 178.306 1158.99 181.299 1158.99 184.992C1158.99 188.685 1161.98 191.679 1165.67 191.679Z" fill="#FDCB6E"/>
<path d="M1187.96 213.967C1191.66 213.967 1194.65 210.974 1194.65 207.281C1194.65 203.588 1191.66 200.594 1187.96 200.594C1184.27 200.594 1181.28 203.588 1181.28 207.281C1181.28 210.974 1184.27 213.967 1187.96 213.967Z" fill="#FDCB6E"/>
<path d="M1210.25 191.679C1213.94 191.679 1216.94 188.685 1216.94 184.992C1216.94 181.299 1213.94 178.306 1210.25 178.306C1206.56 178.306 1203.56 181.299 1203.56 184.992C1203.56 188.685 1206.56 191.679 1210.25 191.679Z" fill="#FDCB6E"/>
<path d="M1232.54 213.967C1236.23 213.967 1239.23 210.974 1239.23 207.281C1239.23 203.588 1236.23 200.594 1232.54 200.594C1228.85 200.594 1225.85 203.588 1225.85 207.281C1225.85 210.974 1228.85 213.967 1232.54 213.967Z" fill="#FDCB6E"/>
<path d="M1254.83 191.679C1258.52 191.679 1261.51 188.685 1261.51 184.992C1261.51 181.299 1258.52 178.306 1254.83 178.306C1251.13 178.306 1248.14 181.299 1248.14 184.992C1248.14 188.685 1251.13 191.679 1254.83 191.679Z" fill="#FDCB6E"/>
<path d="M1277.12 213.967C1280.81 213.967 1283.8 210.974 1283.8 207.281C1283.8 203.588 1280.81 200.594 1277.12 200.594C1273.42 200.594 1270.43 203.588 1270.43 207.281C1270.43 210.974 1273.42 213.967 1277.12 213.967Z" fill="#FDCB6E"/>
<path d="M1299.4 191.679C1303.1 191.679 1306.09 188.685 1306.09 184.992C1306.09 181.299 1303.1 178.306 1299.4 178.306C1295.71 178.306 1292.72 181.299 1292.72 184.992C1292.72 188.685 1295.71 191.679 1299.4 191.679Z" fill="#FDCB6E"/>
<path d="M1321.69 213.967C1325.39 213.967 1328.38 210.974 1328.38 207.281C1328.38 203.588 1325.39 200.594 1321.69 200.594C1318 200.594 1315.01 203.588 1315.01 207.281C1315.01 210.974 1318 213.967 1321.69 213.967Z" fill="#FDCB6E"/>
<path d="M1343.98 191.679C1347.67 191.679 1350.67 188.685 1350.67 184.992C1350.67 181.299 1347.67 178.306 1343.98 178.306C1340.29 178.306 1337.29 181.299 1337.29 184.992C1337.29 188.685 1340.29 191.679 1343.98 191.679Z" fill="#FDCB6E"/>
<path d="M1366.27 213.967C1369.96 213.967 1372.95 210.974 1372.95 207.281C1372.95 203.588 1369.96 200.594 1366.27 200.594C1362.58 200.594 1359.58 203.588 1359.58 207.281C1359.58 210.974 1362.58 213.967 1366.27 213.967Z" fill="#FDCB6E"/>
<path d="M1388.56 191.679C1392.25 191.679 1395.24 188.685 1395.24 184.992C1395.24 181.299 1392.25 178.306 1388.56 178.306C1384.86 178.306 1381.87 181.299 1381.87 184.992C1381.87 188.685 1384.86 191.679 1388.56 191.679Z" fill="#FDCB6E"/>
<path d="M1410.85 213.967C1414.54 213.967 1417.53 210.974 1417.53 207.281C1417.53 203.588 1414.54 200.594 1410.85 200.594C1407.15 200.594 1404.16 203.588 1404.16 207.281C1404.16 210.974 1407.15 213.967 1410.85 213.967Z" fill="#FDCB6E"/>
<path d="M1076.52 236.255C1080.21 236.255 1083.21 233.262 1083.21 229.569C1083.21 225.876 1080.21 222.882 1076.52 222.882C1072.83 222.882 1069.83 225.876 1069.83 229.569C1069.83 233.262 1072.83 236.255 1076.52 236.255Z" fill="#FDCB6E"/>
<path d="M1098.81 258.543C1102.5 258.543 1105.5 255.55 1105.5 251.857C1105.5 248.164 1102.5 245.17 1098.81 245.17C1095.12 245.17 1092.12 248.164 1092.12 251.857C1092.12 255.55 1095.12 258.543 1098.81 258.543Z" fill="#FDCB6E"/>
<path d="M1121.1 236.255C1124.79 236.255 1127.78 233.262 1127.78 229.569C1127.78 225.876 1124.79 222.882 1121.1 222.882C1117.41 222.882 1114.41 225.876 1114.41 229.569C1114.41 233.262 1117.41 236.255 1121.1 236.255Z" fill="#FDCB6E"/>
<path d="M1143.39 258.543C1147.08 258.543 1150.07 255.55 1150.07 251.857C1150.07 248.164 1147.08 245.17 1143.39 245.17C1139.69 245.17 1136.7 248.164 1136.7 251.857C1136.7 255.55 1139.69 258.543 1143.39 258.543Z" fill="#FDCB6E"/>
<path d="M1165.67 236.255C1169.37 236.255 1172.36 233.262 1172.36 229.569C1172.36 225.876 1169.37 222.882 1165.67 222.882C1161.98 222.882 1158.99 225.876 1158.99 229.569C1158.99 233.262 1161.98 236.255 1165.67 236.255Z" fill="#FDCB6E"/>
<path d="M1187.96 258.543C1191.66 258.543 1194.65 255.55 1194.65 251.857C1194.65 248.164 1191.66 245.17 1187.96 245.17C1184.27 245.17 1181.28 248.164 1181.28 251.857C1181.28 255.55 1184.27 258.543 1187.96 258.543Z" fill="#FDCB6E"/>
<path d="M1210.25 236.255C1213.94 236.255 1216.94 233.262 1216.94 229.569C1216.94 225.876 1213.94 222.882 1210.25 222.882C1206.56 222.882 1203.56 225.876 1203.56 229.569C1203.56 233.262 1206.56 236.255 1210.25 236.255Z" fill="#FDCB6E"/>
<path d="M1232.54 258.543C1236.23 258.543 1239.23 255.55 1239.23 251.857C1239.23 248.164 1236.23 245.17 1232.54 245.17C1228.85 245.17 1225.85 248.164 1225.85 251.857C1225.85 255.55 1228.85 258.543 1232.54 258.543Z" fill="#FDCB6E"/>
<path d="M1254.83 236.255C1258.52 236.255 1261.51 233.262 1261.51 229.569C1261.51 225.876 1258.52 222.882 1254.83 222.882C1251.13 222.882 1248.14 225.876 1248.14 229.569C1248.14 233.262 1251.13 236.255 1254.83 236.255Z" fill="#FDCB6E"/>
<path d="M1277.12 258.543C1280.81 258.543 1283.8 255.55 1283.8 251.857C1283.8 248.164 1280.81 245.17 1277.12 245.17C1273.42 245.17 1270.43 248.164 1270.43 251.857C1270.43 255.55 1273.42 258.543 1277.12 258.543Z" fill="#FDCB6E"/>
<path d="M1299.4 236.255C1303.1 236.255 1306.09 233.262 1306.09 229.569C1306.09 225.876 1303.1 222.882 1299.4 222.882C1295.71 222.882 1292.72 225.876 1292.72 229.569C1292.72 233.262 1295.71 236.255 1299.4 236.255Z" fill="#FDCB6E"/>
<path d="M1321.69 258.543C1325.39 258.543 1328.38 255.55 1328.38 251.857C1328.38 248.164 1325.39 245.17 1321.69 245.17C1318 245.17 1315.01 248.164 1315.01 251.857C1315.01 255.55 1318 258.543 1321.69 258.543Z" fill="#FDCB6E"/>
<path d="M1343.98 236.255C1347.67 236.255 1350.67 233.262 1350.67 229.569C1350.67 225.876 1347.67 222.882 1343.98 222.882C1340.29 222.882 1337.29 225.876 1337.29 229.569C1337.29 233.262 1340.29 236.255 1343.98 236.255Z" fill="#FDCB6E"/>
<path d="M1366.27 258.543C1369.96 258.543 1372.95 255.55 1372.95 251.857C1372.95 248.164 1369.96 245.17 1366.27 245.17C1362.58 245.17 1359.58 248.164 1359.58 251.857C1359.58 255.55 1362.58 258.543 1366.27 258.543Z" fill="#FDCB6E"/>
<path d="M1388.56 236.255C1392.25 236.255 1395.24 233.262 1395.24 229.569C1395.24 225.876 1392.25 222.882 1388.56 222.882C1384.86 222.882 1381.87 225.876 1381.87 229.569C1381.87 233.262 1384.86 236.255 1388.56 236.255Z" fill="#FDCB6E"/>
<path d="M1410.85 258.543C1414.54 258.543 1417.53 255.55 1417.53 251.857C1417.53 248.164 1414.54 245.17 1410.85 245.17C1407.15 245.17 1404.16 248.164 1404.16 251.857C1404.16 255.55 1407.15 258.543 1410.85 258.543Z" fill="#FDCB6E"/>
<path d="M1076.52 280.832C1080.21 280.832 1083.21 277.838 1083.21 274.145C1083.21 270.453 1080.21 267.459 1076.52 267.459C1072.83 267.459 1069.83 270.453 1069.83 274.145C1069.83 277.838 1072.83 280.832 1076.52 280.832Z" fill="#FDCB6E"/>
<path d="M1098.81 303.12C1102.5 303.12 1105.5 300.126 1105.5 296.434C1105.5 292.741 1102.5 289.747 1098.81 289.747C1095.12 289.747 1092.12 292.741 1092.12 296.434C1092.12 300.126 1095.12 303.12 1098.81 303.12Z" fill="#FDCB6E"/>
<path d="M1121.1 280.832C1124.79 280.832 1127.78 277.838 1127.78 274.145C1127.78 270.453 1124.79 267.459 1121.1 267.459C1117.41 267.459 1114.41 270.453 1114.41 274.145C1114.41 277.838 1117.41 280.832 1121.1 280.832Z" fill="#FDCB6E"/>
<path d="M1143.39 303.12C1147.08 303.12 1150.07 300.126 1150.07 296.434C1150.07 292.741 1147.08 289.747 1143.39 289.747C1139.69 289.747 1136.7 292.741 1136.7 296.434C1136.7 300.126 1139.69 303.12 1143.39 303.12Z" fill="#FDCB6E"/>
<path d="M1165.67 280.832C1169.37 280.832 1172.36 277.838 1172.36 274.145C1172.36 270.453 1169.37 267.459 1165.67 267.459C1161.98 267.459 1158.99 270.453 1158.99 274.145C1158.99 277.838 1161.98 280.832 1165.67 280.832Z" fill="#FDCB6E"/>
<path d="M1187.96 303.12C1191.66 303.12 1194.65 300.126 1194.65 296.434C1194.65 292.741 1191.66 289.747 1187.96 289.747C1184.27 289.747 1181.28 292.741 1181.28 296.434C1181.28 300.126 1184.27 303.12 1187.96 303.12Z" fill="#FDCB6E"/>
<path d="M1210.25 280.832C1213.94 280.832 1216.94 277.838 1216.94 274.145C1216.94 270.453 1213.94 267.459 1210.25 267.459C1206.56 267.459 1203.56 270.453 1203.56 274.145C1203.56 277.838 1206.56 280.832 1210.25 280.832Z" fill="#FDCB6E"/>
<path d="M1232.54 303.12C1236.23 303.12 1239.23 300.126 1239.23 296.434C1239.23 292.741 1236.23 289.747 1232.54 289.747C1228.85 289.747 1225.85 292.741 1225.85 296.434C1225.85 300.126 1228.85 303.12 1232.54 303.12Z" fill="#FDCB6E"/>
<path d="M1254.83 280.832C1258.52 280.832 1261.51 277.838 1261.51 274.145C1261.51 270.453 1258.52 267.459 1254.83 267.459C1251.13 267.459 1248.14 270.453 1248.14 274.145C1248.14 277.838 1251.13 280.832 1254.83 280.832Z" fill="#FDCB6E"/>
<path d="M1277.12 303.12C1280.81 303.12 1283.8 300.126 1283.8 296.434C1283.8 292.741 1280.81 289.747 1277.12 289.747C1273.42 289.747 1270.43 292.741 1270.43 296.434C1270.43 300.126 1273.42 303.12 1277.12 303.12Z" fill="#FDCB6E"/>
<path d="M1299.4 280.832C1303.1 280.832 1306.09 277.838 1306.09 274.145C1306.09 270.453 1303.1 267.459 1299.4 267.459C1295.71 267.459 1292.72 270.453 1292.72 274.145C1292.72 277.838 1295.71 280.832 1299.4 280.832Z" fill="#FDCB6E"/>
<path d="M1321.69 303.12C1325.39 303.12 1328.38 300.126 1328.38 296.434C1328.38 292.741 1325.39 289.747 1321.69 289.747C1318 289.747 1315.01 292.741 1315.01 296.434C1315.01 300.126 1318 303.12 1321.69 303.12Z" fill="#FDCB6E"/>
<path d="M1343.98 280.832C1347.67 280.832 1350.67 277.838 1350.67 274.145C1350.67 270.453 1347.67 267.459 1343.98 267.459C1340.29 267.459 1337.29 270.453 1337.29 274.145C1337.29 277.838 1340.29 280.832 1343.98 280.832Z" fill="#FDCB6E"/>
<path d="M1366.27 303.12C1369.96 303.12 1372.95 300.126 1372.95 296.434C1372.95 292.741 1369.96 289.747 1366.27 289.747C1362.58 289.747 1359.58 292.741 1359.58 296.434C1359.58 300.126 1362.58 303.12 1366.27 303.12Z" fill="#FDCB6E"/>
<path d="M1388.56 280.832C1392.25 280.832 1395.24 277.838 1395.24 274.145C1395.24 270.453 1392.25 267.459 1388.56 267.459C1384.86 267.459 1381.87 270.453 1381.87 274.145C1381.87 277.838 1384.86 280.832 1388.56 280.832Z" fill="#FDCB6E"/>
<path d="M1410.85 303.12C1414.54 303.12 1417.53 300.126 1417.53 296.434C1417.53 292.741 1414.54 289.747 1410.85 289.747C1407.15 289.747 1404.16 292.741 1404.16 296.434C1404.16 300.126 1407.15 303.12 1410.85 303.12Z" fill="#FDCB6E"/>
</g>
<defs>
<clipPath id="clip0">
<rect width="1429" height="290" fill="white"/>
</clipPath>
</defs>
</svg>
