<svg width="375" height="547" viewBox="0 0 375 547" fill="none" xmlns="http://www.w3.org/2000/svg">
<g opacity="0.4" clip-path="url(#clip0)">
<path d="M375 -1.56778e-05L375 413.35C375 413.35 357.606 405.906 325.849 413.19C294.093 420.473 277.981 416.446 233.738 403.816C189.495 391.186 168.604 415.373 105.187 405.836C41.77 396.299 50.2708 427.451 0.000368607 413C-0.0103974 395.467 0.00869532 13.5625 0.000369149 1.09586e-05C38.7465 0.0107508 375 -1.56778e-05 375 -1.56778e-05Z" fill="#FFEAA7"/>
</g>
<g opacity="0.4" filter="url(#filter0_d)">
<rect x="55.7197" y="156.084" width="757.268" height="422.601" rx="54.4825" transform="rotate(-45 55.7197 156.084)" fill="#FDCB6E"/>
</g>
<g clip-path="url(#clip1)">
<path d="M324.324 87.3998C326.851 87.3998 328.899 85.3515 328.899 82.8248C328.899 80.2982 326.851 78.2499 324.324 78.2499C321.797 78.2499 319.749 80.2982 319.749 82.8248C319.749 85.3515 321.797 87.3998 324.324 87.3998Z" fill="#FDCB6E"/>
<path d="M339.574 72.1499C342.1 72.1499 344.149 70.1016 344.149 67.575C344.149 65.0483 342.1 63 339.574 63C337.047 63 334.999 65.0483 334.999 67.575C334.999 70.1016 337.047 72.1499 339.574 72.1499Z" fill="#FDCB6E"/>
<path d="M354.823 87.3998C357.35 87.3998 359.398 85.3515 359.398 82.8248C359.398 80.2982 357.35 78.2499 354.823 78.2499C352.297 78.2499 350.249 80.2982 350.249 82.8248C350.249 85.3515 352.297 87.3998 354.823 87.3998Z" fill="#FDCB6E"/>
<path d="M370.073 72.1499C372.6 72.1499 374.648 70.1016 374.648 67.575C374.648 65.0483 372.6 63 370.073 63C367.547 63 365.499 65.0483 365.499 67.575C365.499 70.1016 367.547 72.1499 370.073 72.1499Z" fill="#FDCB6E"/>
<path d="M293.824 117.899C296.351 117.899 298.399 115.851 298.399 113.324C298.399 110.798 296.351 108.75 293.824 108.75C291.298 108.75 289.249 110.798 289.249 113.324C289.249 115.851 291.298 117.899 293.824 117.899Z" fill="#FDCB6E"/>
<path d="M309.074 102.65C311.601 102.65 313.649 100.601 313.649 98.0746C313.649 95.5479 311.601 93.4996 309.074 93.4996C306.547 93.4996 304.499 95.5479 304.499 98.0746C304.499 100.601 306.547 102.65 309.074 102.65Z" fill="#FDCB6E"/>
<path d="M324.324 117.899C326.851 117.899 328.899 115.851 328.899 113.324C328.899 110.798 326.851 108.75 324.324 108.75C321.797 108.75 319.749 110.798 319.749 113.324C319.749 115.851 321.797 117.899 324.324 117.899Z" fill="#FDCB6E"/>
<path d="M339.574 102.65C342.1 102.65 344.149 100.601 344.149 98.0746C344.149 95.5479 342.1 93.4996 339.574 93.4996C337.047 93.4996 334.999 95.5479 334.999 98.0746C334.999 100.601 337.047 102.65 339.574 102.65Z" fill="#FDCB6E"/>
<path d="M354.823 117.899C357.35 117.899 359.398 115.851 359.398 113.324C359.398 110.798 357.35 108.75 354.823 108.75C352.297 108.75 350.249 110.798 350.249 113.324C350.249 115.851 352.297 117.899 354.823 117.899Z" fill="#FDCB6E"/>
<path d="M370.073 102.65C372.6 102.65 374.648 100.601 374.648 98.0746C374.648 95.5479 372.6 93.4996 370.073 93.4996C367.547 93.4996 365.499 95.5479 365.499 98.0746C365.499 100.601 367.547 102.65 370.073 102.65Z" fill="#FDCB6E"/>
<path d="M263.324 148.399C265.851 148.399 267.899 146.351 267.899 143.824C267.899 141.298 265.851 139.249 263.324 139.249C260.798 139.249 258.75 141.298 258.75 143.824C258.75 146.351 260.798 148.399 263.324 148.399Z" fill="#FDCB6E"/>
<path d="M278.574 133.149C281.101 133.149 283.149 131.101 283.149 128.574C283.149 126.048 281.101 123.999 278.574 123.999C276.048 123.999 273.999 126.048 273.999 128.574C273.999 131.101 276.048 133.149 278.574 133.149Z" fill="#FDCB6E"/>
<path d="M293.824 148.399C296.351 148.399 298.399 146.351 298.399 143.824C298.399 141.298 296.351 139.249 293.824 139.249C291.298 139.249 289.249 141.298 289.249 143.824C289.249 146.351 291.298 148.399 293.824 148.399Z" fill="#FDCB6E"/>
<path d="M309.074 133.149C311.601 133.149 313.649 131.101 313.649 128.574C313.649 126.048 311.601 123.999 309.074 123.999C306.547 123.999 304.499 126.048 304.499 128.574C304.499 131.101 306.547 133.149 309.074 133.149Z" fill="#FDCB6E"/>
<path d="M324.324 148.399C326.851 148.399 328.899 146.351 328.899 143.824C328.899 141.298 326.851 139.249 324.324 139.249C321.797 139.249 319.749 141.298 319.749 143.824C319.749 146.351 321.797 148.399 324.324 148.399Z" fill="#FDCB6E"/>
<path d="M339.574 133.149C342.1 133.149 344.149 131.101 344.149 128.574C344.149 126.048 342.1 123.999 339.574 123.999C337.047 123.999 334.999 126.048 334.999 128.574C334.999 131.101 337.047 133.149 339.574 133.149Z" fill="#FDCB6E"/>
<path d="M354.823 148.399C357.35 148.399 359.398 146.351 359.398 143.824C359.398 141.298 357.35 139.249 354.823 139.249C352.297 139.249 350.249 141.298 350.249 143.824C350.249 146.351 352.297 148.399 354.823 148.399Z" fill="#FDCB6E"/>
<path d="M370.073 133.149C372.6 133.149 374.648 131.101 374.648 128.574C374.648 126.048 372.6 123.999 370.073 123.999C367.547 123.999 365.499 126.048 365.499 128.574C365.499 131.101 367.547 133.149 370.073 133.149Z" fill="#FDCB6E"/>
<path d="M278.574 163.649C281.101 163.649 283.149 161.601 283.149 159.074C283.149 156.547 281.101 154.499 278.574 154.499C276.048 154.499 273.999 156.547 273.999 159.074C273.999 161.601 276.048 163.649 278.574 163.649Z" fill="#FDCB6E"/>
<path d="M293.824 178.899C296.351 178.899 298.399 176.851 298.399 174.324C298.399 171.797 296.351 169.749 293.824 169.749C291.298 169.749 289.249 171.797 289.249 174.324C289.249 176.851 291.298 178.899 293.824 178.899Z" fill="#FDCB6E"/>
<path d="M309.074 163.649C311.601 163.649 313.649 161.601 313.649 159.074C313.649 156.547 311.601 154.499 309.074 154.499C306.547 154.499 304.499 156.547 304.499 159.074C304.499 161.601 306.547 163.649 309.074 163.649Z" fill="#FDCB6E"/>
<path d="M324.324 178.899C326.851 178.899 328.899 176.851 328.899 174.324C328.899 171.797 326.851 169.749 324.324 169.749C321.797 169.749 319.749 171.797 319.749 174.324C319.749 176.851 321.797 178.899 324.324 178.899Z" fill="#FDCB6E"/>
<path d="M339.574 163.649C342.1 163.649 344.149 161.601 344.149 159.074C344.149 156.547 342.1 154.499 339.574 154.499C337.047 154.499 334.999 156.547 334.999 159.074C334.999 161.601 337.047 163.649 339.574 163.649Z" fill="#FDCB6E"/>
<path d="M354.823 178.899C357.35 178.899 359.398 176.851 359.398 174.324C359.398 171.797 357.35 169.749 354.823 169.749C352.297 169.749 350.249 171.797 350.249 174.324C350.249 176.851 352.297 178.899 354.823 178.899Z" fill="#FDCB6E"/>
<path d="M370.073 163.649C372.6 163.649 374.648 161.601 374.648 159.074C374.648 156.547 372.6 154.499 370.073 154.499C367.547 154.499 365.499 156.547 365.499 159.074C365.499 161.601 367.547 163.649 370.073 163.649Z" fill="#FDCB6E"/>
<path d="M309.074 194.149C311.601 194.149 313.649 192.1 313.649 189.574C313.649 187.047 311.601 184.999 309.074 184.999C306.547 184.999 304.499 187.047 304.499 189.574C304.499 192.1 306.547 194.149 309.074 194.149Z" fill="#FDCB6E"/>
<path d="M324.324 209.398C326.851 209.398 328.899 207.35 328.899 204.823C328.899 202.297 326.851 200.249 324.324 200.249C321.797 200.249 319.749 202.297 319.749 204.823C319.749 207.35 321.797 209.398 324.324 209.398Z" fill="#FDCB6E"/>
<path d="M339.574 194.149C342.1 194.149 344.149 192.1 344.149 189.574C344.149 187.047 342.1 184.999 339.574 184.999C337.047 184.999 334.999 187.047 334.999 189.574C334.999 192.1 337.047 194.149 339.574 194.149Z" fill="#FDCB6E"/>
<path d="M354.823 209.398C357.35 209.398 359.398 207.35 359.398 204.823C359.398 202.297 357.35 200.249 354.823 200.249C352.297 200.249 350.249 202.297 350.249 204.823C350.249 207.35 352.297 209.398 354.823 209.398Z" fill="#FDCB6E"/>
<path d="M370.073 194.149C372.6 194.149 374.648 192.1 374.648 189.574C374.648 187.047 372.6 184.999 370.073 184.999C367.547 184.999 365.499 187.047 365.499 189.574C365.499 192.1 367.547 194.149 370.073 194.149Z" fill="#FDCB6E"/>
<path d="M339.574 224.648C342.1 224.648 344.149 222.6 344.149 220.073C344.149 217.547 342.1 215.498 339.574 215.498C337.047 215.498 334.999 217.547 334.999 220.073C334.999 222.6 337.047 224.648 339.574 224.648Z" fill="#FDCB6E"/>
<path d="M354.823 239.898C357.35 239.898 359.398 237.85 359.398 235.323C359.398 232.797 357.35 230.748 354.823 230.748C352.297 230.748 350.249 232.797 350.249 235.323C350.249 237.85 352.297 239.898 354.823 239.898Z" fill="#FDCB6E"/>
<path d="M370.073 224.648C372.6 224.648 374.648 222.6 374.648 220.073C374.648 217.547 372.6 215.498 370.073 215.498C367.547 215.498 365.499 217.547 365.499 220.073C365.499 222.6 367.547 224.648 370.073 224.648Z" fill="#FDCB6E"/>
<path d="M370.073 255.148C372.6 255.148 374.648 253.1 374.648 250.573C374.648 248.046 372.6 245.998 370.073 245.998C367.547 245.998 365.499 248.046 365.499 250.573C365.499 253.1 367.547 255.148 370.073 255.148Z" fill="#FDCB6E"/>
</g>
<defs>
<filter id="filter0_d" x="-104.62" y="-471.008" width="1017.54" height="1017.54" filterUnits="userSpaceOnUse" color-interpolation-filters="sRGB">
<feFlood flood-opacity="0" result="BackgroundImageFix"/>
<feColorMatrix in="SourceAlpha" type="matrix" values="0 0 0 0 0 0 0 0 0 0 0 0 0 0 0 0 0 0 127 0"/>
<feOffset dx="-68.7163"/>
<feGaussianBlur stdDeviation="45.8117"/>
<feColorMatrix type="matrix" values="0 0 0 0 0 0 0 0 0 0 0 0 0 0 0 0 0 0 0.16 0"/>
<feBlend mode="normal" in2="BackgroundImageFix" result="effect1_dropShadow"/>
<feBlend mode="normal" in="SourceGraphic" in2="effect1_dropShadow" result="shape"/>
</filter>
<clipPath id="clip0">
<rect width="375" height="420" fill="white"/>
</clipPath>
<clipPath id="clip1">
<rect width="197" height="195" fill="white" transform="translate(213 63)"/>
</clipPath>
</defs>
</svg>
