<svg width="40" height="40" viewBox="0 0 40 40" fill="none" xmlns="http://www.w3.org/2000/svg">
<path d="M17.4077 16.2984C17.4076 16.2984 17.4096 16.297 17.4143 16.2944C17.4102 16.2972 17.4078 16.2985 17.4077 16.2984ZM16.5167 16.8332C16.5927 16.8452 16.6468 16.8599 16.6838 16.873C16.6872 16.8881 16.6907 16.9045 16.6944 16.9224C16.723 17.0603 16.7513 17.239 16.7756 17.4485C16.8243 17.868 16.8525 18.3707 16.8437 18.8484C16.8415 18.9723 16.8368 19.0902 16.8299 19.2013C16.683 18.9668 16.5292 18.6947 16.3734 18.3976C15.8406 17.3817 15.3651 16.2311 15.1485 15.7015C14.8746 14.9732 14.2248 14.6263 13.6809 14.5313L13.5917 14.5157L13.5012 14.5164L10.653 14.5382C10.2852 14.5388 9.74142 14.624 9.354 15.0591C8.91055 15.5571 8.95347 16.1759 9.11169 16.6195L9.11848 16.6385L9.12602 16.6572C9.87368 18.5131 11.0949 21.3185 12.7932 23.6491C14.4586 25.9346 16.7845 28.0351 19.7885 27.9376C19.8565 27.9383 19.9411 27.9444 20.0757 27.9541C20.0935 27.9554 20.1121 27.9567 20.1317 27.9581C20.2894 27.9694 20.4957 27.9831 20.7081 27.979C21.0807 27.972 21.7732 27.9119 22.2654 27.3656L22.2946 27.3331L22.321 27.2982C22.6029 26.9242 22.6975 26.5162 22.7367 26.2045C22.7642 25.9858 22.7704 25.7322 22.7748 25.5539C22.7751 25.541 22.7754 25.5285 22.7757 25.5164C22.9195 25.6689 23.0625 25.8412 23.2272 26.0395C23.3281 26.161 23.4371 26.2923 23.5594 26.4348C24.0014 26.9499 24.6025 27.5788 25.5077 27.8768C25.8061 27.9751 26.1463 28.0326 26.4987 27.9803L29.0766 27.938C29.4382 27.9367 29.9256 27.86 30.3334 27.5522C30.824 27.1819 31.0427 26.5945 30.9322 25.956L30.9215 25.894L30.903 25.8337C30.6397 24.9741 30.0219 24.1918 29.4416 23.5449C29.1458 23.2152 28.8302 22.8896 28.5334 22.5834L28.5179 22.5674C28.2396 22.2803 27.9788 22.0108 27.7421 21.7493C27.7678 21.7056 27.8138 21.6296 27.8903 21.5131C28.022 21.3128 28.1975 21.0611 28.4055 20.7657C28.4551 20.6952 28.5063 20.6225 28.559 20.5479C28.9396 20.0084 29.3908 19.3689 29.7911 18.7481C30.2312 18.0658 30.6777 17.305 30.8776 16.6748C30.9667 16.3939 31.0862 15.9089 30.9066 15.4329C30.8016 15.1548 30.605 14.9104 30.323 14.7518C30.061 14.6045 29.7887 14.5661 29.5671 14.5661V14.566L29.5538 14.5662C28.7332 14.5771 27.8068 14.5733 26.9248 14.5696C26.499 14.5678 26.0836 14.5661 25.6954 14.5661H25.5755L25.4589 14.5945C25.2353 14.6489 24.9879 14.751 24.7648 14.9461C24.5496 15.1343 24.412 15.3611 24.3231 15.5861C23.8269 16.73 23.2987 17.9263 22.6563 18.9105C22.6608 18.7346 22.6693 18.5465 22.6801 18.3466C22.6856 18.245 22.6918 18.1397 22.698 18.032C22.7223 17.616 22.7486 17.165 22.7478 16.7546C22.7467 16.2576 22.7101 15.6574 22.4943 15.1516L22.4933 15.1493C22.2031 14.474 21.5887 14.2509 21.2681 14.1662L21.2563 14.163L21.2444 14.1602C20.5097 13.9851 19.4261 13.9643 18.5047 14.0458C18.0338 14.0874 17.5581 14.1596 17.1507 14.2709C16.9474 14.3264 16.7373 14.398 16.5442 14.4932C16.3644 14.5818 16.1222 14.7279 15.935 14.969L15.935 14.969C15.8693 15.0536 15.6958 15.2784 15.6371 15.5742C15.6023 15.7493 15.5836 16.0824 15.8106 16.401C16.0341 16.7148 16.3483 16.8062 16.5145 16.8329L16.5167 16.8332ZM17.406 19.9344C17.406 19.9346 17.4034 19.933 17.398 19.9292C17.4033 19.9322 17.406 19.9342 17.406 19.9344ZM22.3656 25.1467C22.3643 25.146 22.3636 25.1457 22.3636 25.1456C22.3636 25.1456 22.3643 25.1459 22.3656 25.1467Z" stroke="#6C5CE7" stroke-width="2"/>
</svg>
