<svg width="70" height="70" viewBox="0 0 70 70" fill="none" xmlns="http://www.w3.org/2000/svg">
<rect width="70" height="70" fill="white"/>
<rect x="0.5" y="0.5" width="69" height="69" stroke="#6C5CE7"/>
<path d="M59 51C59 55.4 55.4 59 51 59H19C14.6 59 11 55.4 11 51V19C11 14.6 14.6 11 19 11H51C55.4 11 59 14.6 59 19V51Z" fill="#563D7C"/>
<path d="M24.0431 21.4314H37.6509C40.1607 21.4314 42.1764 22.0039 43.6901 23.1569C45.2039 24.3098 45.9646 26.0432 45.9646 28.3726C45.9646 29.7843 45.6195 30.9922 44.9294 31.9961C44.2392 33 43.2509 33.7843 41.9646 34.3334V34.4118C43.6901 34.7804 44.9999 35.5961 45.8862 36.8588C46.7725 38.1294 47.2195 39.7138 47.2195 41.6275C47.2195 42.7255 47.0235 43.753 46.6313 44.702C46.2392 45.6588 45.6274 46.4824 44.7882 47.1726C43.949 47.8628 42.8823 48.4118 41.5725 48.8196C40.2627 49.2275 38.7097 49.4314 36.9058 49.4314H24.0431V21.4314ZM28.945 33.1569H36.945C38.1215 33.1569 39.1019 32.8275 39.8862 32.153C40.6705 31.4785 41.0627 30.5216 41.0627 29.2667C41.0627 27.8549 40.7097 26.8588 40.0039 26.2863C39.298 25.7137 38.2784 25.4236 36.945 25.4236H28.945V33.1569ZM28.945 45.4314H37.6117C39.1019 45.4314 40.2627 45.0471 41.0784 44.2706C41.9019 43.502 42.3176 42.4039 42.3176 40.9922C42.3176 39.6039 41.9097 38.5451 41.0784 37.7922C40.247 37.0392 39.1019 36.6785 37.6117 36.6785H28.945V45.4314Z" fill="white"/>
</svg>
