<svg width="70" height="70" viewBox="0 0 70 70" fill="none" xmlns="http://www.w3.org/2000/svg">
<rect x="0.5" y="0.5" width="69" height="69" fill="white" stroke="#6C5CE7"/>
<rect x="11" y="11" width="48" height="48" fill="#FFCA28"/>
<path d="M40.1429 50.9217L43.6769 48.5833C43.9538 49.4534 45.7077 51.5199 47.9231 51.5199C50.1385 51.5199 51.167 50.3099 51.167 49.5078C51.167 47.3217 48.9049 46.551 47.8183 46.1808C47.6412 46.1204 47.4954 46.0707 47.3956 46.0273C47.3445 46.005 47.2671 45.9754 47.1678 45.9375C45.9594 45.4758 41.5011 43.7725 41.5011 38.8351C41.5011 33.3968 46.7495 32.7715 47.9363 32.7715C48.7127 32.7715 52.4462 32.8666 54.3055 36.3607L50.8769 38.7536C50.1253 37.2308 48.8764 36.7278 48.1077 36.7278C46.2088 36.7278 45.8132 38.1199 45.8132 38.7536C45.8132 40.5316 47.8763 41.3286 49.6183 42.0015C50.074 42.1776 50.5078 42.3451 50.8769 42.5196C52.7758 43.4169 55.5714 44.8852 55.5714 49.5078C55.5714 51.8231 53.6295 55.5715 48.7407 55.5715C42.1736 55.5715 40.433 51.6287 40.1429 50.9217Z" fill="#3E3E3E"/>
<path d="M23 51.3861L26.6834 49.0488C26.9721 49.9185 28.0936 51.522 29.7209 51.522C31.3482 51.522 32.1811 49.8506 32.1811 49.0488V33.2857H36.7112V49.0488C36.7845 51.223 35.5787 55.5715 30.2569 55.5715C25.364 55.5715 23.3299 52.6634 23 51.3861Z" fill="#3E3E3E"/>
</svg>
