<svg width="70" height="70" viewBox="0 0 70 70" fill="none" xmlns="http://www.w3.org/2000/svg">
<rect x="0.5" y="0.5" width="69" height="69" fill="white" stroke="#6C5CE7"/>
<rect x="11" y="11" width="48" height="48" fill="#32CAFA"/>
<rect x="12.7143" y="12.7143" width="44.5714" height="44.5714" fill="#021D25"/>
<path d="M21.2857 23.3587C21.2857 23.2163 21.5932 23.1069 21.7711 23.1069C23.169 23.0356 25.22 23 27.3728 23C33.3937 23 35.7396 26.3024 35.7396 30.5336C35.7396 36.0597 31.7366 38.4284 26.8263 38.4284C26.0029 38.4284 25.7157 38.3928 25.1413 38.3928V46.7481C25.1413 46.9288 25.0701 47 24.8896 47H21.5373C21.3569 47 21.2857 46.9288 21.2857 46.7481V23.3587ZM25.1413 34.9122C25.6419 34.9478 26.0384 34.9478 26.8975 34.9478C29.4416 34.9478 31.8332 34.0497 31.8332 30.6073C31.8332 27.8443 30.1253 26.4449 27.2203 26.4449C26.3612 26.4449 25.5352 26.4805 25.1413 26.5162V34.9122ZM43.8396 32.3273C42.1189 32.3273 41.5445 33.1898 41.5445 33.9072C41.5445 34.696 41.9385 35.2353 44.2335 36.4184C47.6392 38.0696 48.7143 39.6471 48.7143 41.9802C48.7143 45.4607 46.0609 47 42.4773 47C40.5787 47 38.9598 46.6157 38.0295 46.0763C37.8872 46.0051 37.8491 45.8982 37.8491 45.7176V42.8401C37.8491 42.6239 37.9558 42.5526 38.1007 42.6595C39.463 43.5576 41.0438 43.952 42.4773 43.952C44.1979 43.952 44.9146 43.2345 44.9146 42.2651C44.9146 41.4764 44.4139 40.7945 42.2257 39.6471C39.1427 38.1765 37.8516 36.6678 37.8516 34.1566C37.8516 31.3579 40.0374 29.2481 43.837 29.2481C45.7 29.2481 47.0165 29.3123 47.7332 29.6354C47.9137 29.7423 47.9493 29.9229 47.9493 30.0654V33.0447C47.9493 33.2228 47.8425 33.3322 47.6265 33.261C46.9353 32.8506 45.5602 32.3273 43.8396 32.3273Z" fill="#32CAFA"/>
</svg>
