<svg width="70" height="70" viewBox="0 0 70 70" fill="none" xmlns="http://www.w3.org/2000/svg">
<rect x="0.5" y="0.5" width="69" height="69" fill="white" stroke="#6C5CE7"/>
<rect x="11" y="11" width="48" height="48" fill="#FB7C33"/>
<rect x="12.7143" y="12.7143" width="44.5714" height="44.5714" fill="#261302"/>
<path d="M28.0916 40.4182L26.4866 46.7839C26.4534 46.9578 26.387 47 26.1855 47H23.2103C23.0112 47 22.978 46.9305 23.0112 46.6846L28.7625 25.5731C28.862 25.1881 28.9308 24.8553 28.964 23.8047C28.964 23.6656 29.0303 23.5936 29.1323 23.5936H33.3781C33.5109 23.5936 33.5796 23.6284 33.6128 23.8047L40.0658 46.7193C40.099 46.8932 40.0658 47 39.8975 47H36.5548C36.3889 47 36.287 46.9578 36.2538 46.8187L34.5824 40.4182H28.0916ZM33.7409 36.9683L31.3346 26.9913L28.9616 36.9683H33.7409ZM42.8561 25.1708C42.8561 23.8047 43.7593 23 44.928 23C46.1655 23 47 23.8767 47 25.1708C47 26.5716 46.13 27.3415 44.8948 27.3415C43.6905 27.3415 42.8561 26.5716 42.8561 25.1708ZM43.0837 29.9966C43.0837 29.8202 43.15 29.7507 43.3184 29.7507H46.4974C46.6657 29.7507 46.7321 29.8202 46.7321 29.9966V46.7541C46.7321 46.9305 46.6989 47 46.4974 47H43.3515C43.15 47 43.0837 46.8957 43.0837 46.7193V29.9966Z" fill="#FB7C33"/>
</svg>
